<svg width="124" height="25" viewBox="0 0 124 25" fill="none" xmlns="http://www.w3.org/2000/svg">
<g clip-path="url(#clip0_2498_36205)">
<g clip-path="url(#clip1_2498_36205)">
<path d="M17.2096 0.833313H5.64373C2.52703 0.833313 0 3.39526 0 6.55503V18.2818C0 21.4416 2.52703 24.0035 5.64373 24.0035H17.2107C20.3274 24.0035 22.8544 21.4416 22.8544 18.2818V6.55503C22.8544 3.39526 20.3274 0.833313 17.2107 0.833313" fill="#690DD3"/>
<path d="M12.9907 18.0146V14.2838H9.86234V18.0146H7.46976L10.3716 20.9565C10.9538 21.5468 11.8992 21.5468 12.4815 20.9565L15.3833 18.0146H12.9907ZM5.90612 16.4283V8.4065L3.00432 11.3484C2.42206 11.9387 2.42206 12.8972 3.00432 13.4875L5.90612 16.4294V16.4283ZM9.86234 6.82017V10.552H12.9907V6.82017H15.3833L12.4815 3.87828C11.8992 3.28797 10.9538 3.28797 10.3716 3.87828L7.46976 6.82017H9.86234ZM19.8487 11.3473L16.9469 8.40543V16.4272L19.8487 13.4853C20.431 12.895 20.431 11.9366 19.8487 11.3462" fill="white"/>
<path d="M46.2042 4.973V19.9164H40.8982L35.8494 7.88699H35.5911V19.9164H32.3855V8.1478H30.248V4.97192H36.5863C37.286 4.97192 37.8757 5.34543 38.1711 6.01838L42.7773 17.0025H42.9986V4.973H46.2042Z" fill="black"/>
<path d="M47.8728 14.3128C47.8728 10.9877 50.4157 8.4848 53.8426 8.4848C57.2695 8.4848 59.8494 10.9877 59.8494 14.3128C59.8494 17.6378 57.2705 20.1408 53.8426 20.1408C50.4146 20.1408 47.8728 17.6378 47.8728 14.3128ZM56.6798 14.3128C56.6798 12.7061 55.4264 11.4739 53.8426 11.4739C52.2588 11.4739 51.0054 12.7071 51.0054 14.3128C51.0054 15.9184 52.2588 17.1527 53.8426 17.1151C55.4274 17.1527 56.6798 15.9195 56.6798 14.3128Z" fill="black"/>
<path d="M59.7847 8.70911H63.1756L66.1599 17.1892H66.3812L69.3656 8.70911H72.6823L68.4075 19.9164H64.0225L59.7847 8.70911Z" fill="black"/>
<path d="M83.7135 11.4739V19.9175H80.8022V18.7594H80.581C79.6229 19.6556 78.3334 20.1418 76.8958 20.1418C74.464 20.1418 72.9163 18.6854 72.9163 16.6676C72.9163 14.4266 74.5011 13.2309 77.2642 13.2309H80.6911V12.148C80.6911 11.7369 80.4698 11.5126 80.0643 11.5126H73.9474V8.71021H80.9854C82.6432 8.71021 83.7125 9.79423 83.7125 11.475M80.6911 15.3228V15.2111H77.7798C76.5274 15.2111 76.0107 15.6973 76.0107 16.4819C76.0107 17.2665 76.6375 17.8267 77.7056 17.8267C79.5488 17.8267 80.6911 16.5935 80.6911 15.3238" fill="black"/>
<path d="M99.0833 9.68048C99.0833 12.5945 97.0199 14.3879 93.8874 14.3879H89.5765V19.9175H86.2227V4.97302H93.8874C97.0199 4.97302 99.0833 6.80406 99.0833 9.68048ZM95.6564 9.71805C95.6564 8.63402 94.8825 7.96214 93.7032 7.96214H89.5765V11.5115H93.7032C94.8825 11.5115 95.6564 10.8386 95.6564 9.71805Z" fill="black"/>
<path d="M110.296 11.4739V19.9175H107.384V18.7594H107.163C106.205 19.6556 104.915 20.1418 103.478 20.1418C101.046 20.1418 99.4983 18.6854 99.4983 16.6676C99.4983 14.4266 101.083 13.2309 103.846 13.2309H107.273V12.148C107.273 11.7369 107.052 11.5126 106.646 11.5126H100.529V8.71021H107.567C109.226 8.71021 110.295 9.79423 110.295 11.475M107.273 15.3228V15.2111H104.362C103.109 15.2111 102.593 15.6973 102.593 16.4819C102.593 17.2665 103.219 17.8267 104.288 17.8267C106.131 17.8267 107.272 16.5935 107.272 15.3238" fill="black"/>
<path d="M123.999 8.70911L119.135 21.6358C118.471 23.3166 117.734 24.0271 116.26 24.0271H112.207V21.1507H115.708C115.929 21.1507 116.076 21.0756 116.223 20.8513L111.064 8.70911H114.454L117.66 17.377H117.918L120.792 8.70911H123.998H123.999Z" fill="black"/>
</g>
</g>
<defs>
<clipPath id="clip0_2498_36205">
<rect width="124" height="25" fill="white"/>
</clipPath>
<clipPath id="clip1_2498_36205">
<rect width="124" height="23.1928" fill="white" transform="translate(0 0.833313)"/>
</clipPath>
</defs>
</svg>
