<svg width="44" height="44" viewBox="0 0 44 44" fill="none" xmlns="http://www.w3.org/2000/svg">
<g id="ri:visa-fill">
<path id="Vector" d="M1.83325 7.33331H42.1666V11H1.83325V7.33331ZM35.9736 27.3423L35.6546 25.7473H32.0814L31.5131 27.3295L28.6494 27.3368C30.4919 22.924 31.8578 19.6551 32.7488 17.5285C32.9816 16.9748 33.3959 16.6925 34.0046 16.6961C34.4703 16.6998 35.2311 16.6998 36.2871 16.6961L38.4999 27.3386L35.9736 27.3423ZM32.8862 23.562H35.1889L34.3273 19.5653L32.8862 23.562ZM14.4319 16.6943L17.3103 16.698L12.8608 27.3423L9.94575 27.3405C8.96125 23.5455 8.23709 20.7295 7.77509 18.898C7.63392 18.3351 7.35342 17.9428 6.81075 17.7576C6.32859 17.5926 5.52559 17.336 4.39992 16.9895V16.6961H8.99975C9.79542 16.6961 10.2593 17.0811 10.4096 17.8695L11.5463 23.8993L14.4319 16.6943ZM21.2648 16.698L18.9914 27.3405L16.2506 27.3368L18.5239 16.6943L21.2648 16.698ZM26.8234 16.5C27.6411 16.5 28.6751 16.753 29.2691 16.9895L28.7888 19.1968C28.2516 18.9805 27.3679 18.689 26.6254 18.7018C25.5438 18.7183 24.8764 19.1711 24.8764 19.6056C24.8764 20.3096 26.0351 20.6653 27.2304 21.4371C28.5926 22.3171 28.7704 23.1055 28.7558 23.9635C28.7356 25.7436 27.2304 27.5 24.0533 27.5C22.6031 27.478 22.0806 27.357 20.8999 26.939L21.3986 24.6363C22.6013 25.1386 23.1128 25.2981 24.1394 25.2981C25.0836 25.2981 25.8921 24.9186 25.8994 24.2568C25.9031 23.7856 25.6153 23.5528 24.5574 22.9698C23.4996 22.3886 22.0164 21.5838 22.0366 19.9631C22.0604 17.8915 24.0312 16.5 26.8234 16.5Z" fill="#1A1F71"/>
<path id="Vector_2" d="M42.1666 33H1.83325V36.6667H42.1666V33Z" fill="#F7B600"/>
</g>
</svg>
