<svg width="41" height="30" viewBox="0 0 41 30" fill="none" xmlns="http://www.w3.org/2000/svg">
<g id="logos:mastercard" clip-path="url(#clip0_602_429)">
<path id="Vector" d="M7.45611 29.8509V27.8653C7.45611 27.104 6.96388 26.6077 6.12017 26.6077C5.69839 26.6077 5.24139 26.7401 4.92498 27.1703C4.67902 26.8063 4.32754 26.6077 3.80025 26.6077C3.44861 26.6077 3.09729 26.7069 2.81594 27.071V26.6739H2.07776V29.8509H2.81594V28.0969C2.81594 27.5344 3.13236 27.2695 3.62459 27.2695C4.1165 27.2695 4.36277 27.5674 4.36277 28.0969V29.8509H5.10096V28.0969C5.10096 27.5344 5.45228 27.2695 5.90928 27.2695C6.40151 27.2695 6.64747 27.5674 6.64747 28.0969V29.8509H7.45611ZM18.3881 26.6739H17.1931V25.7142H16.4549V26.6739H15.787V27.3026H16.4548V28.7588C16.4548 29.487 16.7712 29.9171 17.6149 29.9171C17.9313 29.9171 18.2826 29.8179 18.5289 29.6855L18.3178 29.0897C18.107 29.2221 17.861 29.2553 17.6852 29.2553C17.3337 29.2553 17.1931 29.0567 17.1931 28.7257V27.3026H18.3881V26.6739ZM24.6453 26.6076C24.2235 26.6076 23.9423 26.8063 23.7665 27.071V26.6739H23.0283V29.8509H23.7665V28.0639C23.7665 27.5344 24.0124 27.2365 24.4694 27.2365C24.61 27.2365 24.7859 27.2697 24.9265 27.3027L25.1373 26.6409C24.9967 26.6077 24.7859 26.6077 24.6453 26.6077V26.6076ZM15.1894 26.9386C14.8378 26.7069 14.3457 26.6077 13.8184 26.6077C12.9749 26.6077 12.4125 27.0048 12.4125 27.6336C12.4125 28.1632 12.8343 28.4609 13.5725 28.5603L13.924 28.5935C14.3107 28.6595 14.5216 28.7588 14.5216 28.9244C14.5216 29.1559 14.2404 29.3214 13.7481 29.3214C13.2561 29.3214 12.8694 29.1559 12.6232 28.9905L12.2718 29.52C12.6585 29.7847 13.1858 29.9171 13.7129 29.9171C14.6972 29.9171 15.2597 29.487 15.2597 28.8912C15.2597 28.3286 14.8027 28.0307 14.0996 27.9315L13.7481 27.8983C13.4317 27.8652 13.1858 27.7991 13.1858 27.6006C13.1858 27.3689 13.4317 27.2365 13.8184 27.2365C14.2404 27.2365 14.6621 27.4019 14.873 27.5012L15.1894 26.9386ZM34.8042 26.6077C34.3823 26.6077 34.1011 26.8063 33.9253 27.071V26.6739H33.1871V29.8509H33.9253V28.0639C33.9253 27.5344 34.1714 27.2365 34.6282 27.2365C34.769 27.2365 34.9448 27.2697 35.0854 27.3027L35.2963 26.6409C35.1557 26.6077 34.9448 26.6077 34.8042 26.6077ZM25.3835 28.2624C25.3835 29.2221 26.0864 29.9171 27.1762 29.9171C27.6683 29.9171 28.0198 29.8179 28.3713 29.5532L28.0198 28.9905C27.7386 29.1891 27.4574 29.2883 27.141 29.2883C26.5434 29.2883 26.1216 28.8912 26.1216 28.2624C26.1216 27.6668 26.5434 27.2695 27.141 27.2365C27.4574 27.2365 27.7386 27.3357 28.0198 27.5344L28.3713 26.9718C28.0198 26.7069 27.6683 26.6077 27.1762 26.6077C26.0864 26.6077 25.3835 27.3027 25.3835 28.2624ZM32.2029 28.2624V26.6739H31.4648V27.071C31.2186 26.7733 30.8672 26.6077 30.4102 26.6077C29.4611 26.6077 28.7229 27.3027 28.7229 28.2624C28.7229 29.2221 29.4611 29.9171 30.4102 29.9171C30.9022 29.9171 31.2539 29.7517 31.4648 29.4538V29.8509H32.2029V28.2624ZM29.4962 28.2624C29.4962 27.6998 29.8829 27.2365 30.5155 27.2365C31.1131 27.2365 31.5351 27.6668 31.5351 28.2624C31.5351 28.825 31.1131 29.2883 30.5155 29.2883C29.8829 29.2551 29.4962 28.825 29.4962 28.2624ZM20.6732 26.6077C19.6889 26.6077 18.9857 27.2695 18.9857 28.2624C18.9857 29.2553 19.6887 29.9171 20.7082 29.9171C21.2003 29.9171 21.6925 29.7847 22.0792 29.487L21.7276 28.9905C21.4464 29.1891 21.0949 29.3214 20.7435 29.3214C20.2864 29.3214 19.8294 29.1229 19.7239 28.5601H22.2198V28.2956C22.2551 27.2695 21.6224 26.6077 20.6732 26.6077ZM20.6732 27.2034C21.13 27.2034 21.4466 27.4682 21.5167 27.9647H19.7592C19.8294 27.5344 20.1459 27.2034 20.6732 27.2034ZM38.9872 28.2624V25.4163H38.249V27.071C38.0029 26.7733 37.6514 26.6077 37.1944 26.6077C36.2454 26.6077 35.5072 27.3027 35.5072 28.2624C35.5072 29.2221 36.2454 29.9171 37.1944 29.9171C37.6867 29.9171 38.0381 29.7517 38.249 29.4538V29.8509H38.9872V28.2624ZM36.2806 28.2624C36.2806 27.6998 36.6671 27.2365 37.2999 27.2365C37.8975 27.2365 38.3193 27.6668 38.3193 28.2624C38.3193 28.825 37.8975 29.2883 37.2999 29.2883C36.6671 29.2551 36.2806 28.825 36.2806 28.2624ZM11.6039 28.2624V26.6739H10.8657V27.071C10.6196 26.7733 10.2681 26.6077 9.8111 26.6077C8.86202 26.6077 8.12384 27.3027 8.12384 28.2624C8.12384 29.2221 8.86202 29.9171 9.8111 29.9171C10.3033 29.9171 10.6548 29.7517 10.8657 29.4538V29.8509H11.6039V28.2624ZM8.86202 28.2624C8.86202 27.6998 9.24873 27.2365 9.88139 27.2365C10.479 27.2365 10.9009 27.6668 10.9009 28.2624C10.9009 28.825 10.479 29.2883 9.88139 29.2883C9.24873 29.2551 8.86202 28.825 8.86202 28.2624Z" fill="black"/>
<path id="Vector_2" d="M14.9432 2.54822H26.016V21.2795H14.9432V2.54822Z" fill="#FF5F00"/>
<path id="Vector_3" d="M15.6479 11.9139C15.6479 8.10814 17.546 4.73246 20.4636 2.54819C18.3195 0.959699 15.6128 0 12.6601 0C5.66462 0 0.00524902 5.32809 0.00524902 11.9139C0.00524902 18.4996 5.66462 23.8278 12.6599 23.8278C15.6127 23.8278 18.3193 22.8681 20.4636 21.2795C17.546 19.1284 15.6479 15.7197 15.6479 11.9139Z" fill="#EB001B"/>
<path id="Vector_4" d="M40.9556 11.9139C40.9556 18.4996 35.2963 23.8278 28.3009 23.8278C25.3482 23.8278 22.6416 22.8681 20.4973 21.2795C23.4501 19.0954 25.3131 15.7197 25.3131 11.9139C25.3131 8.10814 23.4148 4.73246 20.4973 2.54819C22.6414 0.959699 25.3482 0 28.3009 0C35.2963 0 40.9556 5.36126 40.9556 11.9139Z" fill="#F79E1B"/>
</g>
<defs>
<clipPath id="clip0_602_429">
<rect width="41" height="30" fill="white"/>
</clipPath>
</defs>
</svg>
