<svg width="25" height="24" viewBox="0 0 25 24" xmlns="http://www.w3.org/2000/svg">
<path d="M6.62313 21.5C6.118 21.5 5.69043 21.325 5.34043 20.975C4.99043 20.625 4.81543 20.1974 4.81543 19.6923V8.3077C4.81543 7.80257 4.99043 7.375 5.34043 7.025C5.69043 6.675 6.118 6.5 6.62313 6.5H8.56543V6.25C8.56543 5.2141 8.93146 4.33013 9.66351 3.59808C10.3955 2.86603 11.2795 2.5 12.3154 2.5C13.3513 2.5 14.2353 2.86603 14.9673 3.59808C15.6994 4.33013 16.0654 5.2141 16.0654 6.25V6.5H18.0077C18.5128 6.5 18.9404 6.675 19.2904 7.025C19.6404 7.375 19.8154 7.80257 19.8154 8.3077V19.6923C19.8154 20.1974 19.6404 20.625 19.2904 20.975C18.9404 21.325 18.5128 21.5 18.0077 21.5H6.62313ZM6.62313 20H18.0077C18.0846 20 18.1551 19.9679 18.2193 19.9038C18.2834 19.8397 18.3154 19.7692 18.3154 19.6923V8.3077C18.3154 8.23077 18.2834 8.16024 18.2193 8.09613C18.1551 8.03203 18.0846 7.99998 18.0077 7.99998H16.0654V10.25C16.0654 10.4628 15.9936 10.641 15.85 10.7846C15.7064 10.9282 15.5282 11 15.3154 11C15.1026 11 14.9244 10.9282 14.7808 10.7846C14.6372 10.641 14.5654 10.4628 14.5654 10.25V7.99998H10.0654V10.25C10.0654 10.4628 9.99359 10.641 9.85 10.7846C9.70642 10.9282 9.52822 11 9.3154 11C9.10259 11 8.92439 10.9282 8.7808 10.7846C8.63722 10.641 8.56543 10.4628 8.56543 10.25V7.99998H6.62313C6.5462 7.99998 6.47567 8.03203 6.41155 8.09613C6.34745 8.16024 6.3154 8.23077 6.3154 8.3077V19.6923C6.3154 19.7692 6.34745 19.8397 6.41155 19.9038C6.47567 19.9679 6.5462 20 6.62313 20ZM10.0654 6.5H14.5654V6.25C14.5654 5.62307 14.3472 5.09133 13.9106 4.6548C13.4741 4.21825 12.9423 3.99998 12.3154 3.99998C11.6885 3.99998 11.1567 4.21825 10.7202 4.6548C10.2837 5.09133 10.0654 5.62307 10.0654 6.25V6.5Z" fill="currentColor"/>
</svg>
