<svg width="25" height="24" viewBox="0 0 25 24" xmlns="http://www.w3.org/2000/svg">
<path d="M7.81543 5.5C7.81543 4.30653 8.28954 3.16193 9.13345 2.31802C9.97736 1.47411 11.122 1 12.3154 1C13.5089 1 14.6535 1.47411 15.4974 2.31802C16.3413 3.16193 16.8154 4.30653 16.8154 5.5V7H21.3154V23H3.31543V7H7.81543V5.5ZM7.81543 9H5.31543V21H19.3154V9H16.8154V12H14.8154V9H9.81543V12H7.81543V9ZM14.8154 7V5.5C14.8154 4.83696 14.552 4.20107 14.0832 3.73223C13.6144 3.26339 12.9785 3 12.3154 3C11.6524 3 11.0165 3.26339 10.5477 3.73223C10.0788 4.20107 9.81543 4.83696 9.81543 5.5V7H14.8154Z" fill="currentColor"/>
</svg>
