<svg width="20" height="20" viewBox="0 0 20 20" fill="currentColor" xmlns="http://www.w3.org/2000/svg">
<path d="M 12.5 10 C 12.5 11.378906 11.378906 12.5 10 12.5 C 8.621094 12.5 7.5 11.378906 7.5 10 C 7.5 8.621094 8.621094 7.5 10 7.5 C 11.378906 7.5 12.5 8.621094 12.5 10 Z M 19.914062 10.367188 C 18.003906 14.253906 14.203125 16.667969 10 16.667969 C 5.796875 16.667969 1.996094 14.253906 0.0859375 10.367188 C -0.0273438 10.136719 -0.0273438 9.863281 0.0859375 9.632812 C 1.996094 5.746094 5.796875 3.332031 10 3.332031 C 14.203125 3.332031 18.003906 5.746094 19.914062 9.632812 C 20.027344 9.863281 20.027344 10.136719 19.914062 10.367188 Z M 14.167969 10 C 14.167969 7.699219 12.300781 5.832031 10 5.832031 C 7.699219 5.832031 5.832031 7.699219 5.832031 10 C 5.832031 12.300781 7.699219 14.167969 10 14.167969 C 12.300781 14.164062 14.164062 12.300781 14.167969 10 Z M 14.167969 10 "></path>
</svg>