<svg width="25" height="24" viewBox="0 0 25 24" xmlns="http://www.w3.org/2000/svg">
<path d="M12.3154 20.3268L11.2116 19.3345C9.5539 17.8306 8.18306 16.5383 7.09908 15.4576C6.01511 14.3768 5.15615 13.4149 4.52218 12.572C3.8882 11.729 3.44525 10.9601 3.19333 10.2653C2.9414 9.57039 2.81543 8.86526 2.81543 8.14988C2.81543 6.73066 3.29395 5.54253 4.251 4.58548C5.20805 3.62843 6.39619 3.1499 7.8154 3.1499C8.68849 3.1499 9.51349 3.35408 10.2904 3.76243C11.0673 4.17076 11.7423 4.75634 12.3154 5.51915C12.8885 4.75634 13.5635 4.17076 14.3404 3.76243C15.1173 3.35408 15.9423 3.1499 16.8154 3.1499C18.2346 3.1499 19.4228 3.62843 20.3798 4.58548C21.3369 5.54253 21.8154 6.73066 21.8154 8.14988C21.8154 8.86526 21.6894 9.57039 21.4375 10.2653C21.1856 10.9601 20.7426 11.729 20.1086 12.572C19.4747 13.4149 18.6173 14.3768 17.5365 15.4576C16.4558 16.5383 15.0833 17.8306 13.4192 19.3345L12.3154 20.3268ZM12.3154 18.2999C13.9154 16.8601 15.2321 15.6262 16.2654 14.598C17.2987 13.5698 18.1154 12.6765 18.7154 11.9182C19.3154 11.1598 19.7321 10.4864 19.9654 9.89795C20.1987 9.30949 20.3154 8.72679 20.3154 8.14988C20.3154 7.14988 19.9821 6.31654 19.3154 5.64988C18.6487 4.98321 17.8154 4.64988 16.8154 4.64988C16.0257 4.64988 15.2958 4.87392 14.626 5.322C13.9561 5.77007 13.4257 6.39347 13.0346 7.1922H11.5962C11.1987 6.38707 10.6667 5.76206 10 5.31718C9.33336 4.87231 8.60515 4.64988 7.8154 4.64988C6.82182 4.64988 5.99009 4.98321 5.3202 5.64988C4.65034 6.31654 4.3154 7.14988 4.3154 8.14988C4.3154 8.72679 4.43207 9.30949 4.6654 9.89795C4.89874 10.4864 5.3154 11.1598 5.91541 11.9182C6.51541 12.6765 7.33207 13.5682 8.36541 14.5932C9.39874 15.6182 10.7154 16.8537 12.3154 18.2999Z" fill="currentColor"/>
</svg>
