<svg width="21" height="20" viewBox="0 0 21 20" xmlns="http://www.w3.org/2000/svg">
<path fill-rule="evenodd" clip-rule="evenodd" d="M11.2567 2.80879L10.3154 3.75004L9.37418 2.80879C8.37475 1.836 7.03237 1.29603 5.63771 1.30579C4.24304 1.31556 2.90836 1.87428 1.92265 2.86097C0.936946 3.84766 0.379561 5.18291 0.371189 6.57758C0.362818 7.97225 0.904135 9.31409 1.87792 10.3125L8.99043 17.425L10.3154 18.75L11.6404 17.425L18.7529 10.3125C19.7267 9.31409 20.268 7.97225 20.2597 6.57758C20.2513 5.18291 19.6939 3.84766 18.7082 2.86097C17.7225 1.87428 16.3878 1.31556 14.9931 1.30579C13.5985 1.29603 12.2561 1.836 11.2567 2.80879ZM10.3154 16.0988L17.4279 8.98629C18.0608 8.34148 18.4137 7.47292 18.4097 6.5694C18.4057 5.66589 18.0453 4.80046 17.4067 4.16124C16.7681 3.52202 15.9031 3.16069 14.9996 3.15578C14.0961 3.15088 13.2271 3.5028 12.5817 4.13504L11.6417 5.07629L10.3154 6.40004L8.99043 5.07504L8.04917 4.13504V4.13379C7.40569 3.49114 6.53327 3.13043 5.62384 3.13102C4.71441 3.1316 3.84245 3.49344 3.1998 4.13692C2.55715 4.7804 2.19644 5.65282 2.19702 6.56225C2.19761 7.47169 2.55944 8.34364 3.20292 8.98629L10.3154 16.1V16.0988Z" fill="currentColor"/>
</svg>
