<svg width="12" height="10" viewBox="0 0 12 10" fill="none" xmlns="http://www.w3.org/2000/svg">
<g stroke="none" stroke-width="1" fill="none" fill-rule="evenodd">
<g transform="translate(-846.000000, -597.000000)" fill-rule="nonzero" fill="currentColor">
<g transform="translate(789.000000, 188.000000)">
<g transform="translate(57.000000, 409.000000)">
<path d="M12,3.04017857 L12,8.35714286 C12,8.65178571 11.8950893,8.90401786 11.6852679,9.11383929 C11.4754464,9.32366071 11.2232143,9.42857143 10.9285714,9.42857143 L1.07142857,9.42857143 C0.776785714,9.42857143 0.524553571,9.32366071 0.314732143,9.11383929 C0.104910714,8.90401786 0,8.65178571 0,8.35714286 L0,3.04017857 C0.196428571,3.25892857 0.421875,3.453125 0.676339286,3.62276786 C2.29241071,4.72098214 3.40178571,5.49107143 4.00446429,5.93303571 C4.25892857,6.12053571 4.46540179,6.26674107 4.62388393,6.37165179 C4.78236607,6.4765625 4.99330357,6.58370536 5.25669643,6.69308036 C5.52008929,6.80245536 5.765625,6.85714286 5.99330357,6.85714286 L6.00669643,6.85714286 C6.234375,6.85714286 6.47991071,6.80245536 6.74330357,6.69308036 C7.00669643,6.58370536 7.21763393,6.4765625 7.37611607,6.37165179 C7.53459821,6.26674107 7.74107143,6.12053571 7.99553571,5.93303571 C8.75446429,5.38392857 9.86607143,4.61383929 11.3303571,3.62276786 C11.5848214,3.44866071 11.8080357,3.25446429 12,3.04017857 Z M12,1.07142857 C12,1.42410714 11.890625,1.76116071 11.671875,2.08258929 C11.453125,2.40401786 11.1808036,2.67857143 10.8549107,2.90625 C9.17633929,4.07142857 8.13169643,4.796875 7.72098214,5.08258929 C7.67633929,5.11383929 7.58147321,5.18191964 7.43638393,5.28683036 C7.29129464,5.39174107 7.17075893,5.4765625 7.07477679,5.54129464 C6.97879464,5.60602679 6.86272321,5.67857143 6.7265625,5.75892857 C6.59040179,5.83928571 6.46205357,5.89955357 6.34151786,5.93973214 C6.22098214,5.97991071 6.109375,6 6.00669643,6 L5.99330357,6 C5.890625,6 5.77901786,5.97991071 5.65848214,5.93973214 C5.53794643,5.89955357 5.40959821,5.83928571 5.2734375,5.75892857 C5.13727679,5.67857143 5.02120536,5.60602679 4.92522321,5.54129464 C4.82924107,5.4765625 4.70870536,5.39174107 4.56361607,5.28683036 C4.41852679,5.18191964 4.32366071,5.11383929 4.27901786,5.08258929 C3.87276786,4.796875 3.28794643,4.38950893 2.52455357,3.86049107 C1.76116071,3.33147321 1.30357143,3.01339286 1.15178571,2.90625 C0.875,2.71875 0.613839286,2.4609375 0.368303571,2.1328125 C0.122767857,1.8046875 0,1.5 0,1.21875 C0,0.870535714 0.0926339286,0.580357143 0.277901786,0.348214286 C0.463169643,0.116071429 0.727678571,0 1.07142857,0 L10.9285714,0 C11.21875,0 11.4698661,0.104910714 11.6819196,0.314732143 C11.8939732,0.524553571 12,0.776785714 12,1.07142857 Z"></path>
</g>
</g>
</g>
</g>
</svg>