<svg width="11" height="14" viewBox="0 0 11 14" fill="none" xmlns="http://www.w3.org/2000/svg">
<g stroke="none" stroke-width="1" fill="none" fill-rule="evenodd">
<g transform="translate(-846.000000, -657.000000)" fill-rule="nonzero" fill="currentColor">
<g transform="translate(789.000000, 188.000000)">
<g transform="translate(57.000000, 469.000000)">
<path d="M0,5.0166151 C4.19302385e-08,2.24601507 2.28110914,-1.69650332e-16 5.09499979,0 C7.90889045,1.69650332e-16 10.1899995,2.24601507 10.1899996,5.0166151 C10.1899996,8.36102522 5.09499979,13.3776404 5.09499979,13.3776404 C5.09499979,13.3776404 0,8.36102522 0,5.0166151 L0,5.0166151 Z M2.97208321,5.0166151 C2.97208321,6.17103179 3.92254534,7.10687143 5.09499979,7.10687143 C6.26745424,7.10687143 7.21791637,6.17103179 7.21791637,5.0166151 C7.21791637,3.86219841 6.26745424,2.92635878 5.09499979,2.92635878 C3.92254534,2.92635878 2.97208321,3.86219841 2.97208321,5.0166151 L2.97208321,5.0166151 Z"></path>
</g>
</g>
</g>
</g>
</svg>