<svg width="13" height="16" viewBox="0 0 13 16" fill="none" xmlns="http://www.w3.org/2000/svg">
<g stroke="none" stroke-width="1" fill="none" fill-rule="evenodd">
<g transform="translate(-258.000000, -531.000000)" fill-rule="nonzero" fill="currentColor">
<g transform="translate(258.000000, 531.000000)">
<path d="M10.75,5.66666667 L10.0416667,5.66666667 L10.0416667,4.25 C10.0416667,2.295 8.455,0.708333333 6.5,0.708333333 C4.545,0.708333333 2.95833333,2.295 2.95833333,4.25 L2.95833333,5.66666667 L2.25,5.66666667 C1.47083333,5.66666667 0.833333333,6.30416667 0.833333333,7.08333333 L0.833333333,14.1666667 C0.833333333,14.9458333 1.47083333,15.5833333 2.25,15.5833333 L10.75,15.5833333 C11.5291667,15.5833333 12.1666667,14.9458333 12.1666667,14.1666667 L12.1666667,7.08333333 C12.1666667,6.30416667 11.5291667,5.66666667 10.75,5.66666667 Z M6.5,12.0416667 C5.72083333,12.0416667 5.08333333,11.4041667 5.08333333,10.625 C5.08333333,9.84583333 5.72083333,9.20833333 6.5,9.20833333 C7.27916667,9.20833333 7.91666667,9.84583333 7.91666667,10.625 C7.91666667,11.4041667 7.27916667,12.0416667 6.5,12.0416667 Z M8.69583333,5.66666667 L4.30416667,5.66666667 L4.30416667,4.25 C4.30416667,3.03875 5.28875,2.05416667 6.5,2.05416667 C7.71125,2.05416667 8.69583333,3.03875 8.69583333,4.25 L8.69583333,5.66666667 Z"></path>
</g>
</g>
</g>
</svg>