<svg width="12" height="13" viewBox="0 0 12 13" fill="none" xmlns="http://www.w3.org/2000/svg">
<g stroke="none" stroke-width="1" fill="none" fill-rule="evenodd">
<g transform="translate(-259.000000, -417.000000)" fill-rule="nonzero" fill="currentColor">
<g transform="translate(241.000000, 242.000000)">
<path d="M29.993916,186.199733 L29.0580046,175 L18.9419954,175 L18.006084,186.199733 C17.924614,187.190006 18.6710309,188 19.6645675,188 L28.3354325,188 C29.3289691,188 30.075386,187.190006 29.993916,186.199733 Z M27.6128604,177.348331 L27.0709313,177.348331 L27.0709313,179.172262 C27.0705701,180.86848 25.696238,182.242795 24,182.242976 C22.303762,182.242795 20.9294299,180.86848 20.9290687,179.172262 L20.9290687,177.348331 L20.3871396,177.348331 L20.3871396,176.445127 L22.3742128,176.445127 L22.3742128,177.348331 L21.8322838,177.348331 L21.8322838,179.172262 C21.8324644,179.77217 22.0743454,180.311383 22.467244,180.705 C22.8610458,181.098074 23.4000845,181.339772 24,181.339952 C24.5999155,181.339772 25.1391349,181.098074 25.532756,180.705 C25.9256546,180.311203 26.167355,179.77217 26.1677162,179.172262 L26.1677162,177.348331 L25.6257872,177.348331 L25.6257872,176.445127 L27.6128604,176.445127 L27.6128604,177.348331 Z"></path>
</g>
</g>
</g>
</svg>