<svg width="24" height="24" viewBox="0 0 24 24" xmlns="http://www.w3.org/2000/svg">
<path d="M17.6464 21.8196H6.56156V8.28265L13.3496 1.49463L14.9715 2.96775C15.1229 3.10524 15.2478 3.29753 15.3464 3.54463C15.4449 3.79175 15.4942 4.03523 15.4942 4.27508V4.46963L14.4366 8.28265H20.7029C21.3964 8.28265 22.0114 8.55095 22.548 9.08755C23.0846 9.62415 23.3529 10.2392 23.3529 10.9327V12.0707C23.3529 12.2103 23.3362 12.3599 23.3029 12.5194C23.2696 12.679 23.2268 12.8218 23.1747 12.9479L20.0899 20.2381C19.8928 20.6845 19.5603 21.0597 19.0926 21.3637C18.6248 21.6677 18.1427 21.8196 17.6464 21.8196ZM8.99963 19.1696H17.6464L20.6746 12.0707V10.9327H11.3072L12.4876 6.1251L8.99963 9.6131V19.1696ZM6.56156 8.28265V10.9327H3.99963V19.1696H6.56156V21.8196H1.34961V8.28265H6.56156Z" fill="currentColor"/>
</svg>
