<svg width="12" height="12" viewBox="0 0 12 12" xmlns="http://www.w3.org/2000/svg">
<path d="M5.394 8.60598H6.60598V5.49999H5.394V8.60598ZM5.99999 4.6413C6.1817 4.6413 6.33401 4.57984 6.45693 4.45693C6.57984 4.33401 6.6413 4.1817 6.6413 3.99999C6.6413 3.81828 6.57984 3.66597 6.45693 3.54305C6.33401 3.42014 6.1817 3.35868 5.99999 3.35868C5.81828 3.35868 5.66597 3.42014 5.54305 3.54305C5.42014 3.66597 5.35868 3.81828 5.35868 3.99999C5.35868 4.1817 5.42014 4.33401 5.54305 4.45693C5.66597 4.57984 5.81828 4.6413 5.99999 4.6413ZM5.99999 11.2402C5.27064 11.2402 4.5877 11.1029 3.95117 10.8282C3.31462 10.5535 2.76092 10.1808 2.29007 9.70992C1.8192 9.23906 1.44643 8.68536 1.17177 8.04882C0.897099 7.41228 0.759766 6.72934 0.759766 5.99999C0.759766 5.27064 0.897099 4.5877 1.17177 3.95117C1.44643 3.31462 1.8192 2.76092 2.29007 2.29007C2.76092 1.8192 3.31462 1.44643 3.95117 1.17177C4.5877 0.897099 5.27064 0.759766 5.99999 0.759766C6.72934 0.759766 7.41228 0.897099 8.04882 1.17177C8.68536 1.44643 9.23906 1.8192 9.70992 2.29007C10.1808 2.76092 10.5535 3.31462 10.8282 3.95117C11.1029 4.5877 11.2402 5.27064 11.2402 5.99999C11.2402 6.72934 11.1029 7.41228 10.8282 8.04882C10.5535 8.68536 10.1808 9.23906 9.70992 9.70992C9.23906 10.1808 8.68536 10.5535 8.04882 10.8282C7.41228 11.1029 6.72934 11.2402 5.99999 11.2402ZM5.99999 9.9152C7.09782 9.9152 8.02481 9.53712 8.78097 8.78097C9.53712 8.02481 9.9152 7.09782 9.9152 5.99999C9.9152 4.90217 9.53712 3.97517 8.78097 3.21902C8.02481 2.46286 7.09782 2.08478 5.99999 2.08478C4.90217 2.08478 3.97517 2.46286 3.21902 3.21902C2.46286 3.97517 2.08478 4.90217 2.08478 5.99999C2.08478 7.09782 2.46286 8.02481 3.21902 8.78097C3.97517 9.53712 4.90217 9.9152 5.99999 9.9152Z" fill="currentColor"/>
</svg>
