<svg width="11" height="15" viewBox="0 0 11 15" xmlns="http://www.w3.org/2000/svg">
<g stroke="none" stroke-width="1" fill="none" fill-rule="evenodd">
<g transform="translate(-552.000000, -421.000000)" fill="currentColor">
<path d="M552.65,426.936 L552.65,428.124 L556.61,428.124 C555.656,428.592 555.026,428.952 554.702,429.24 C554.666,429.276 554.63,429.294 554.594,429.33 L552.65,429.33 L552.65,430.518 L553.802,430.518 C553.658,430.878 553.586,431.292 553.586,431.76 C553.586,432.948 553.928,433.83 554.648,434.406 C555.332,434.964 556.34,435.252 557.69,435.252 C558.914,435.252 559.868,434.946 560.57,434.37 C561.29,433.74 561.74,432.786 561.884,431.508 L559.85,431.508 C559.688,432.84 558.968,433.506 557.69,433.506 C557.006,433.506 556.484,433.344 556.16,433.038 C555.836,432.75 555.674,432.318 555.674,431.742 C555.674,431.31 555.872,430.914 556.304,430.518 L562.82,430.518 L562.82,429.33 L558.302,429.33 C559.418,428.79 560.156,428.394 560.498,428.142 L560.516,428.124 L562.82,428.124 L562.82,426.936 L561.542,426.936 C561.776,426.468 561.902,425.982 561.902,425.442 C561.902,424.236 561.506,423.336 560.75,422.742 C560.03,422.166 559.04,421.896 557.78,421.896 C556.556,421.896 555.602,422.184 554.918,422.778 C554.162,423.39 553.73,424.344 553.586,425.64 L555.62,425.64 C555.764,424.308 556.484,423.642 557.78,423.642 C558.464,423.642 558.968,423.768 559.31,424.038 C559.634,424.29 559.796,424.758 559.796,425.406 C559.796,425.946 559.544,426.396 559.058,426.792 C558.986,426.828 558.932,426.882 558.86,426.936 L552.65,426.936 Z"></path>
</g>
</g>
</svg>