<svg width="25" height="24" viewBox="0 0 25 24" xmlns="http://www.w3.org/2000/svg">
<path d="M19.8577 20.577L13.5769 14.2962C13.0769 14.7091 12.5019 15.0321 11.8519 15.2655C11.2019 15.4988 10.5295 15.6155 9.83465 15.6155C8.12548 15.6155 6.67897 15.0237 5.4951 13.8401C4.31123 12.6566 3.7193 11.2104 3.7193 9.50169C3.7193 7.79296 4.31108 6.34628 5.49465 5.16167C6.67822 3.97707 8.12437 3.38477 9.8331 3.38477C11.5418 3.38477 12.9885 3.9767 14.1731 5.16057C15.3577 6.34443 15.95 7.79095 15.95 9.50012C15.95 10.2142 15.8301 10.8963 15.5904 11.5463C15.3506 12.1963 15.0308 12.7617 14.6308 13.2424L20.9115 19.5232L19.8577 20.577ZM9.83465 14.1155C11.1231 14.1155 12.2145 13.6684 13.1087 12.7742C14.0029 11.8799 14.45 10.7886 14.45 9.50012C14.45 8.21165 14.0029 7.1203 13.1087 6.22607C12.2145 5.33183 11.1231 4.88472 9.83465 4.88472C8.54618 4.88472 7.45483 5.33183 6.5606 6.22607C5.66638 7.1203 5.21927 8.21165 5.21927 9.50012C5.21927 10.7886 5.66638 11.8799 6.5606 12.7742C7.45483 13.6684 8.54618 14.1155 9.83465 14.1155Z" fill="currentColor"/>
</svg>
