<svg width="25" height="24" viewBox="0 0 25 24" xmlns="http://www.w3.org/2000/svg">
<path d="M15.4412 17.567C13.8068 18.8373 11.7499 19.4366 9.68931 19.2429C7.62875 19.0491 5.71946 18.0768 4.35023 16.5241C2.98099 14.9713 2.25476 12.9548 2.3194 10.8851C2.38404 8.81538 3.2347 6.84815 4.69816 5.38394C6.16162 3.91974 8.12785 3.06865 10.1965 3.00397C12.2651 2.9393 14.2806 3.6659 15.8326 5.03583C17.3846 6.40577 18.3564 8.31602 18.55 10.3776C18.7437 12.4392 18.1447 14.4972 16.8751 16.1325L22.3154 21.5553L20.8714 23L15.4514 17.567H15.4412ZM10.4585 17.2415C11.2597 17.2415 12.0531 17.0836 12.7933 16.7768C13.5336 16.47 14.2062 16.0204 14.7728 15.4535C15.3393 14.8867 15.7888 14.2137 16.0954 13.4731C16.402 12.7324 16.5598 11.9386 16.5598 11.137C16.5598 10.3353 16.402 9.54155 16.0954 8.80092C15.7888 8.06029 15.3393 7.38734 14.7728 6.82049C14.2062 6.25364 13.5336 5.80399 12.7933 5.49721C12.0531 5.19043 11.2597 5.03254 10.4585 5.03254C8.84028 5.03254 7.28837 5.67568 6.14415 6.82049C4.99992 7.9653 4.3571 9.51799 4.3571 11.137C4.3571 12.756 4.99992 14.3087 6.14415 15.4535C7.28837 16.5983 8.84028 17.2415 10.4585 17.2415Z" fill="currentColor"/>
</svg>
