<svg width="12" height="12" viewBox="0 0 12 12" xmlns="http://www.w3.org/2000/svg">
<path d="M1.42935 10.2402C1.24529 10.2402 1.08767 10.1758 0.956516 10.047C0.825349 9.91821 0.759766 9.76204 0.759766 9.57851C0.759766 9.47056 0.783499 9.3707 0.830966 9.27894C0.878432 9.18717 0.94492 9.11104 1.03043 9.05053L5.34457 5.89619V5.09184C5.34457 4.90613 5.40973 4.75047 5.54005 4.62484C5.67039 4.49922 5.82787 4.4364 6.0125 4.4364C6.20287 4.4364 6.36278 4.36929 6.49224 4.23507C6.62169 4.10084 6.68642 3.94052 6.68642 3.75409C6.68642 3.56767 6.61939 3.40951 6.48533 3.27962C6.35127 3.14972 6.19067 3.08478 6.00354 3.08478C5.8164 3.08478 5.65698 3.15082 5.52528 3.28292C5.39358 3.41502 5.32773 3.57542 5.32773 3.76412H4.0027C4.0027 3.21013 4.19841 2.73758 4.58983 2.34645C4.98124 1.95533 5.45379 1.75977 6.0075 1.75977C6.5612 1.75977 7.03362 1.95322 7.42474 2.34013C7.81587 2.72704 8.01143 3.19753 8.01143 3.75162C8.01143 4.17155 7.88624 4.5451 7.63588 4.87228C7.38552 5.19945 7.06107 5.4355 6.66252 5.58043V5.89619L10.9766 9.05053C11.0621 9.11104 11.1286 9.18717 11.1761 9.27894C11.2236 9.3707 11.2473 9.47056 11.2473 9.57851C11.2473 9.76204 11.1817 9.91821 11.0506 10.047C10.9194 10.1758 10.7618 10.2402 10.5777 10.2402H1.42935ZM3.4734 8.9152H8.53368L6.00707 7.06088L3.4734 8.9152Z" fill="currentColor"/>
</svg>
