<svg width="14" height="14" viewBox="0 0 14 14" fill="none" xmlns="http://www.w3.org/2000/svg">
<g stroke="none" stroke-width="1" fill="none" fill-rule="evenodd">
<g transform="translate(-240.000000, -408.000000)">
<g transform="translate(240.000000, 408.000000)">
<path d="M6.94001429,12.5233143 C3.92758571,12.5233143 1.47658571,10.0726 1.47658571,7.06002857 C1.47658571,4.04745714 3.92758571,1.59674286 6.94001429,1.59674286 C9.95244286,1.59674286 12.4034429,4.04745714 12.4034429,7.06002857 C12.4034429,10.0726 9.95244286,12.5233143 6.94001429,12.5233143 M6.94001429,0.120028571 C3.1133,0.120028571 1.42857143e-05,3.23331429 1.42857143e-05,7.06002857 C1.42857143e-05,10.8867429 3.1133,14.0000286 6.94001429,14.0000286 C10.7667286,14.0000286 13.8800143,10.8867429 13.8800143,7.06002857 C13.8800143,3.23331429 10.7667286,0.120028571 6.94001429,0.120028571" id="Fill-1" fill="currentColor" ></path>

<path d="M11.1796673,6.28964568 L7.85134414,6.28964568 L7.85134414,2.749914 C7.85134414,2.45203715 7.57830334,2.21052632 7.24138532,2.21052632 C6.90461975,2.21052632 6.63157895,2.45203715 6.63157895,2.749914 L6.63157895,6.82903337 C6.63157895,7.12691022 6.90461975,7.36842105 7.24138532,7.36842105 L11.1796673,7.36842105 C11.5164329,7.36842105 11.7894737,7.12691022 11.7894737,6.82903337 C11.7894737,6.53115652 11.5164329,6.28964568 11.1796673,6.28964568" fill="currentColor"></path>
</g>
</g>
</g>
</svg>