<svg width="25" height="24" viewBox="0 0 25 24" xmlns="http://www.w3.org/2000/svg">
<path d="M12.3154 11.6923C11.3529 11.6923 10.529 11.3496 9.84355 10.6642C9.15814 9.97879 8.81543 9.15484 8.81543 8.19236C8.81543 7.22986 9.15814 6.40591 9.84355 5.72051C10.529 5.03509 11.3529 4.69238 12.3154 4.69238C13.2779 4.69238 14.1018 5.03509 14.7873 5.72051C15.4727 6.40591 15.8154 7.22986 15.8154 8.19236C15.8154 9.15484 15.4727 9.97879 14.7873 10.6642C14.1018 11.3496 13.2779 11.6923 12.3154 11.6923ZM4.81543 19.3077V17.0846C4.81543 16.5949 4.94845 16.1414 5.21448 15.7241C5.4805 15.3068 5.83594 14.986 6.2808 14.7616C7.26927 14.277 8.26639 13.9135 9.27215 13.6712C10.2779 13.4289 11.2923 13.3078 12.3154 13.3078C13.3385 13.3078 14.3529 13.4289 15.3587 13.6712C16.3644 13.9135 17.3615 14.277 18.35 14.7616C18.7949 14.986 19.1503 15.3068 19.4163 15.7241C19.6824 16.1414 19.8154 16.5949 19.8154 17.0846V19.3077H4.81543ZM6.3154 17.8077H18.3154V17.0846C18.3154 16.8821 18.2567 16.6946 18.1394 16.5221C18.0221 16.3497 17.8628 16.209 17.6616 16.1C16.8 15.6757 15.9215 15.3542 15.0261 15.1356C14.1307 14.917 13.2271 14.8077 12.3154 14.8077C11.4037 14.8077 10.5001 14.917 9.6047 15.1356C8.70927 15.3542 7.83079 15.6757 6.96925 16.1C6.76797 16.209 6.60868 16.3497 6.49138 16.5221C6.37406 16.6946 6.3154 16.8821 6.3154 17.0846V17.8077ZM12.3154 10.1924C12.8654 10.1924 13.3362 9.99653 13.7279 9.60486C14.1196 9.21319 14.3154 8.74236 14.3154 8.19236C14.3154 7.64236 14.1196 7.17153 13.7279 6.77986C13.3362 6.38819 12.8654 6.19236 12.3154 6.19236C11.7654 6.19236 11.2946 6.38819 10.9029 6.77986C10.5112 7.17153 10.3154 7.64236 10.3154 8.19236C10.3154 8.74236 10.5112 9.21319 10.9029 9.60486C11.2946 9.99653 11.7654 10.1924 12.3154 10.1924Z" fill="currentColor"/>
</svg>
