<svg width="25" height="24" viewBox="0 0 25 24" xmlns="http://www.w3.org/2000/svg">
<path d="M12.3154 12C11.2154 12 10.2738 11.6083 9.49043 10.825C8.7071 10.0417 8.31543 9.1 8.31543 8C8.31543 6.9 8.7071 5.95833 9.49043 5.175C10.2738 4.39167 11.2154 4 12.3154 4C13.4154 4 14.3571 4.39167 15.1404 5.175C15.9238 5.95833 16.3154 6.9 16.3154 8C16.3154 9.1 15.9238 10.0417 15.1404 10.825C14.3571 11.6083 13.4154 12 12.3154 12ZM4.31543 20V17.2C4.31543 16.6333 4.46126 16.1125 4.75293 15.6375C5.0446 15.1625 5.4321 14.8 5.91543 14.55C6.94876 14.0333 7.99876 13.6458 9.06543 13.3875C10.1321 13.1292 11.2154 13 12.3154 13C13.4154 13 14.4988 13.1292 15.5654 13.3875C16.6321 13.6458 17.6821 14.0333 18.7154 14.55C19.1988 14.8 19.5863 15.1625 19.8779 15.6375C20.1696 16.1125 20.3154 16.6333 20.3154 17.2V20H4.31543ZM6.31543 18H18.3154V17.2C18.3154 17.0167 18.2696 16.85 18.1779 16.7C18.0863 16.55 17.9654 16.4333 17.8154 16.35C16.9154 15.9 16.0071 15.5625 15.0904 15.3375C14.1738 15.1125 13.2488 15 12.3154 15C11.3821 15 10.4571 15.1125 9.54043 15.3375C8.62376 15.5625 7.71543 15.9 6.81543 16.35C6.66543 16.4333 6.5446 16.55 6.45293 16.7C6.36126 16.85 6.31543 17.0167 6.31543 17.2V18ZM12.3154 10C12.8654 10 13.3363 9.80417 13.7279 9.4125C14.1196 9.02083 14.3154 8.55 14.3154 8C14.3154 7.45 14.1196 6.97917 13.7279 6.5875C13.3363 6.19583 12.8654 6 12.3154 6C11.7654 6 11.2946 6.19583 10.9029 6.5875C10.5113 6.97917 10.3154 7.45 10.3154 8C10.3154 8.55 10.5113 9.02083 10.9029 9.4125C11.2946 9.80417 11.7654 10 12.3154 10Z" fill="currentColor"/>
</svg>
