<?xml version="1.0" encoding="UTF-8"?>
<svg width="307px" height="219px" viewBox="0 0 307 219" version="1.1" xmlns="http://www.w3.org/2000/svg" xmlns:xlink="http://www.w3.org/1999/xlink">
    <!-- Generator: Sketch 47 (45396) - http://www.bohemiancoding.com/sketch -->
    <title>Group</title>
    <desc>Created with Sketch.</desc>
    <defs>
        <linearGradient x1="0%" y1="0%" x2="101.999998%" y2="100.999999%" id="linearGradient-1">
            <stop stop-color="#6DB1FF" offset="0%"></stop>
            <stop stop-color="#D461FB" offset="100%"></stop>
        </linearGradient>
        <rect id="path-2" x="93" y="57" width="133" height="162"></rect>
    </defs>
    <g id="Page-1" stroke="none" stroke-width="1" fill="none" fill-rule="evenodd">
        <g id="Empty-cart-960" transform="translate(-558.000000, -354.000000)">
            <g id="Group" transform="translate(558.000000, 354.000000)">
                <polygon id="Shape" fill="#000000" fill-rule="nonzero" opacity="0.1" points="55 130 54 135 54 130"></polygon>
                <polygon id="Shape" fill="#000000" fill-rule="nonzero" opacity="0.1" points="54.19 135 54.19 136 54 135.904762"></polygon>
                <polygon id="Shape" fill="#000000" fill-rule="nonzero" opacity="0.1" points="57 130 55 130 55.1881391 128"></polygon>
                <path d="M103.749633,6.99998351 C103.430118,7.00093548 103.12439,6.86985113 102.904724,6.63771884 L98.3583056,2.08928462 C97.8805648,1.61133184 97.8805648,0.836417331 98.3583057,0.35846458 C98.8360466,-0.119488172 99.6106177,-0.119488196 100.088359,0.358464525 L104.634777,4.90689874 C104.868279,5.13422976 105,5.44634686 105,5.77230879 C105,6.09827072 104.868279,6.41038782 104.634777,6.63771884 C104.399562,6.87133867 104.081074,7.00168702 103.749633,6.99998351 L103.749633,6.99998351 Z" id="Shape" fill="#745CBC" fill-rule="nonzero"></path>
                <path d="M99.2101328,6.99998351 C98.8906175,7.00093548 98.5848895,6.86985113 98.3652232,6.63771884 C98.1317207,6.41038782 98,6.09827072 98,5.77230879 C98,5.44634686 98.1317207,5.13422976 98.3652232,4.90689874 L102.911641,0.358464525 C103.389382,-0.119488196 104.163953,-0.119488172 104.641694,0.35846458 C105.119435,0.836417331 105.119435,1.61133184 104.641694,2.08928462 L100.095276,6.63771884 C99.8600615,6.87133867 99.5415734,7.00168702 99.2101328,6.99998351 L99.2101328,6.99998351 Z" id="Shape" fill="#745CBC" fill-rule="nonzero"></path>
                <path d="M245.749633,196.999995 C245.430118,197.000947 245.12439,196.869862 244.904724,196.63773 L240.358306,192.089288 C239.880565,191.611335 239.880565,190.836419 240.358306,190.358465 C240.836047,189.880512 241.610618,189.880512 242.088359,190.358465 L246.634777,194.906907 C246.868279,195.134238 247,195.446356 247,195.772318 C247,196.098281 246.868279,196.410398 246.634777,196.63773 C246.391373,196.858676 246.078036,196.986916 245.749633,196.999995 L245.749633,196.999995 Z" id="Shape" fill="#745CBC" fill-rule="nonzero"></path>
                <path d="M241.210133,196.999995 C240.890617,197.000947 240.58489,196.869862 240.365223,196.63773 C240.131721,196.410398 240,196.098281 240,195.772318 C240,195.446356 240.131721,195.134238 240.365223,194.906907 L244.911641,190.358465 C245.389382,189.880512 246.163953,189.880512 246.641694,190.358465 C247.119435,190.836419 247.119435,191.611335 246.641694,192.089288 L242.095276,196.63773 C241.85588,196.864956 241.540077,196.994205 241.210133,196.999995 L241.210133,196.999995 Z" id="Shape" fill="#745CBC" fill-rule="nonzero"></path>
                <path d="M305.749633,129.999984 C305.430118,130.000935 305.12439,129.869851 304.904724,129.637719 L300.358306,125.089285 C299.880565,124.611332 299.880565,123.836417 300.358306,123.358465 C300.836047,122.880512 301.610618,122.880512 302.088359,123.358465 L306.634777,127.906899 C306.868279,128.13423 307,128.446347 307,128.772309 C307,129.098271 306.868279,129.410388 306.634777,129.637719 C306.399562,129.871339 306.081074,130.001687 305.749633,129.999984 Z" id="Shape" fill="#745CBC" fill-rule="nonzero"></path>
                <path d="M301.210133,129.999995 C300.890617,130.000947 300.58489,129.869862 300.365223,129.63773 C300.131721,129.410398 300,129.098281 300,128.772318 C300,128.446356 300.131721,128.134238 300.365223,127.906907 L304.911641,123.358465 C305.389382,122.880512 306.163953,122.880512 306.641694,123.358465 C307.119435,123.836419 307.119435,124.611334 306.641694,125.089288 L302.095276,129.63773 C301.851873,129.858676 301.538535,129.986916 301.210133,129.999995 L301.210133,129.999995 Z" id="Shape" fill="#745CBC" fill-rule="nonzero"></path>
                <path d="M298.813559,177 L294.186441,177 C293.531188,177 293,176.552285 293,176 C293,175.447715 293.531188,175 294.186441,175 L298.813559,175 C299.468812,175 300,175.447715 300,176 C300,176.552285 299.468812,177 298.813559,177 L298.813559,177 Z" id="Shape" fill="#745CBC" fill-rule="nonzero"></path>
                <path d="M56.196698,190.992878 C54.3245645,191.001844 52.5267571,190.221611 51.203642,188.825935 C49.2997723,186.825157 46.2184105,186.825157 44.3145408,188.825935 C41.5525975,191.724688 37.0862591,191.724688 34.3243158,188.825935 C34.0451305,188.532523 33.9357043,188.104452 34.0372569,187.702974 C34.1388096,187.301495 34.4359128,186.987602 34.8166508,186.879535 C35.1973887,186.771468 35.6039182,186.885646 35.8831035,187.179058 C37.7869732,189.179836 40.868335,189.179836 42.7722047,187.179058 C45.5332148,184.277925 50.0014195,184.277925 52.7624297,187.179058 C54.6639518,189.181725 57.7458958,189.181725 59.647418,187.179058 C62.4051428,184.273647 66.8758052,184.273647 69.6335301,187.179058 C69.9370576,187.464854 70.0656588,187.904121 69.9676827,188.320434 C69.8697067,188.736747 69.5612285,189.0618 69.1661441,189.16504 C68.7710598,189.268281 68.3541913,189.13277 68.0829682,188.812933 C66.181446,186.810266 63.099502,186.810266 61.1979799,188.812933 C59.8746317,190.215109 58.0733717,191.000238 56.196698,190.992878 L56.196698,190.992878 Z" id="Shape" fill="#C5BBF2" fill-rule="nonzero"></path>
                <path d="M248.217913,155.992863 C246.347542,156.001848 244.551427,155.21992 243.229558,153.821214 C241.327481,151.816091 238.24902,151.816091 236.346943,153.821214 C233.587601,156.726262 229.125468,156.726262 226.366125,153.821214 C226.062883,153.534797 225.934403,153.094575 226.032287,152.677359 C226.130171,152.260142 226.438358,151.934383 226.833071,151.830918 C227.227783,151.727454 227.644259,151.863259 227.915227,152.18379 C229.817304,154.188913 232.895764,154.188913 234.797841,152.18379 C237.556252,149.276357 242.02025,149.276357 244.77866,152.18379 C246.678392,154.190806 249.757434,154.190806 251.657166,152.18379 C254.412294,149.27207 258.878747,149.27207 261.633875,152.18379 C261.937117,152.470207 262.065597,152.910428 261.967713,153.327645 C261.869829,153.744862 261.561642,154.070621 261.166929,154.174085 C260.772217,154.27755 260.355741,154.141744 260.084773,153.821214 C258.185041,151.814197 255.105999,151.814197 253.206268,153.821214 C251.884139,155.21951 250.088194,156.001364 248.217913,155.992863 L248.217913,155.992863 Z" id="Shape" fill="#C5BBF2" fill-rule="nonzero"></path>
                <path d="M281,84 C278.238576,84 276,81.7614237 276,79 C276,76.2385763 278.238576,74 281,74 C283.761424,74 286,76.2385763 286,79 C285.997767,81.7604985 283.760498,83.9977675 281,84 Z M281,76.1578947 C279.434821,76.1578947 278.165992,77.4267234 278.165992,78.9919028 C278.165992,80.5570823 279.434821,81.8259109 281,81.8259109 C282.565179,81.8259109 283.834008,80.5570823 283.834008,78.9919028 C283.838319,78.2374752 283.541641,77.5124668 283.009694,76.9774795 C282.477746,76.4424922 281.75444,76.1416881 281,76.1417004 L281,76.1578947 Z" id="Shape" fill="#C5BBF2" fill-rule="nonzero"></path>
                <path d="M24.8135593,147 L20.1864407,147 C19.5311876,147 19,146.552285 19,146 C19,145.447715 19.5311876,145 20.1864407,145 L24.8135593,145 C25.4688124,145 26,145.447715 26,146 C26,146.552285 25.4688124,147 24.8135593,147 Z" id="Shape" fill="#745CBC" fill-rule="nonzero"></path>
                <path d="M56.8135593,121 L52.1864407,121 C51.5311876,121 51,120.552285 51,120 C51,119.447715 51.5311876,119 52.1864407,119 L56.8135593,119 C57.4688124,119 58,119.447715 58,120 C58,120.552285 57.4688124,121 56.8135593,121 Z" id="Shape-Copy" fill="#745CBC" fill-rule="nonzero" transform="translate(54.500000, 120.000000) rotate(9.000000) translate(-54.500000, -120.000000) "></path>
                <path d="M64.8135593,102 L60.1864407,102 C59.5311876,102 59,101.552285 59,101 C59,100.447715 59.5311876,100 60.1864407,100 L64.8135593,100 C65.4688124,100 66,100.447715 66,101 C66,101.552285 65.4688124,102 64.8135593,102 Z" id="Shape-Copy" fill="#745CBC" fill-rule="nonzero" transform="translate(62.500000, 101.000000) rotate(43.000000) translate(-62.500000, -101.000000) "></path>
                <path d="M80.8135593,94 L76.1864407,94 C75.5311876,94 75,93.5522847 75,93 C75,92.4477153 75.5311876,92 76.1864407,92 L80.8135593,92 C81.4688124,92 82,92.4477153 82,93 C82,93.5522847 81.4688124,94 80.8135593,94 Z" id="Shape-Copy" fill="#745CBC" fill-rule="nonzero" transform="translate(78.500000, 93.000000) rotate(88.000000) translate(-78.500000, -93.000000) "></path>
                <path d="M50.0000731,38 C47.9777914,38 46.1546366,36.7818069 45.3807429,34.9134623 C44.6068492,33.0451176 45.0346218,30.8945599 46.4645908,29.4645908 C47.8945599,28.0346218 50.0451176,27.6068492 51.9134623,28.3807429 C53.7818069,29.1546366 55,30.9777914 55,33.0000731 C54.9977675,35.7605312 52.7605312,37.9977675 50.0000731,38 L50.0000731,38 Z M50.0000731,30.1580093 C48.4349165,30.1580093 47.1661064,31.4268194 47.1661064,32.991976 C47.1661064,34.5571326 48.4349165,35.8259427 50.0000731,35.8259427 C51.5652297,35.8259427 52.8340398,34.5571326 52.8340398,32.991976 C52.8383508,32.2375594 52.5416772,31.5125616 52.0097374,30.9775821 C51.4777976,30.4426027 50.754502,30.1418029 50.0000731,30.1418153 L50.0000731,30.1580093 Z" id="Shape" fill="#C5BBF2" fill-rule="nonzero"></path>
                <path d="M5.81355932,112 L1.18644068,112 C0.531187585,112 0,111.552285 0,111 C0,110.447715 0.531187585,110 1.18644068,110 L5.81355932,110 C6.46881242,110 7,110.447715 7,111 C7,111.552285 6.46881242,112 5.81355932,112 Z" id="Shape" fill="#C5BBF2" fill-rule="nonzero"></path>
                <path d="M263.001876,23 C262.448555,23 262,22.4594217 262,21.7925846 L262,19.1335574 C262.032391,18.4965971 262.470478,18 263,18 C263.529522,18 263.967609,18.4965971 264,19.1335574 L264,21.7971067 C263.997942,22.4604165 263.55227,22.9975203 263.001876,23 L263.001876,23 Z" id="Shape" fill="#745CBC" fill-rule="nonzero" style="mix-blend-mode: multiply;"></path>
                <path d="M260.738502,23.9981204 L258.116062,23.9981204 C257.488933,23.9657902 257,23.5285263 257,23 C257,22.4714737 257.488933,22.0342098 258.116062,22.0018796 L260.738502,22.0018796 C261.179763,21.9791315 261.599584,22.1642408 261.828393,22.4824395 C262.057202,22.8006382 262.057202,23.1993618 261.828393,23.5175605 C261.599584,23.8357592 261.179763,24.0208685 260.738502,23.9981204 L260.738502,23.9981204 Z" id="Shape" fill="#745CBC" fill-rule="nonzero" style="mix-blend-mode: multiply;"></path>
                <path d="M263.001873,30 C262.449592,30 262.00188,29.4730823 262.00188,28.8230964 L262.00188,26.2488952 C261.979131,25.8120426 262.164241,25.396416 262.48244,25.1698926 C262.800638,24.9433691 263.199362,24.9433691 263.51756,25.1698926 C263.835759,25.396416 264.020869,25.8120426 263.99812,26.2488952 L263.99812,28.8451358 C263.987944,29.4847877 263.545465,29.997716 263.001873,30 L263.001873,30 Z" id="Shape" fill="#745CBC" fill-rule="nonzero" style="mix-blend-mode: multiply;"></path>
                <path d="M267.738502,23.9981204 L265.116062,23.9981204 C264.488933,23.9657902 264,23.5285263 264,23 C264,22.4714737 264.488933,22.0342098 265.116062,22.0018796 L267.738502,22.0018796 C268.179763,21.9791315 268.599584,22.1642408 268.828393,22.4824395 C269.057202,22.8006382 269.057202,23.1993618 268.828393,23.5175605 C268.599584,23.8357592 268.179763,24.0208685 267.738502,23.9981204 L267.738502,23.9981204 Z" id="Shape" fill="#745CBC" fill-rule="nonzero" style="mix-blend-mode: multiply;"></path>
                <g id="Rectangle" opacity="0.587296196">
                    <use fill="url(#linearGradient-1)" fill-rule="evenodd" xlink:href="#path-2"></use>
                    <rect stroke="#371D72" stroke-width="2" x="94" y="58" width="131" height="160"></rect>
                </g>
                <circle id="Oval" fill="#371D72" fill-rule="nonzero" cx="144" cy="126" r="3"></circle>
                <circle id="Oval" fill="#371D72" fill-rule="nonzero" cx="175" cy="126" r="3"></circle>
                <rect id="Rectangle-Copy" stroke="#371D72" stroke-width="9" opacity="0.233242754" x="97.5" y="60.5" width="124" height="153"></rect>
                <rect id="Rectangle-Copy" stroke="#371D72" stroke-width="2" x="94" y="58" width="131" height="160"></rect>
                <path d="M134.03701,59 L134.03701,43.9086775 C133.370827,25.5695193 141.698113,16.2684586 159.018868,16.0054952 C176.339623,15.7425319 185,24.9172652 185,43.529695 L185,58.9815036" id="Path-2" stroke="#371D72" stroke-width="3"></path>
                <rect id="Rectangle-2" fill="#371D72" x="153" y="141" width="14" height="3" rx="1.5"></rect>
                <circle id="Oval-2" stroke="#371D72" stroke-width="3" fill="#FBE9FF" cx="95" cy="134" r="27"></circle>
                <path d="M251.401839,219 L61.598161,219 C61.2678058,219 61,218.552285 61,218 C61,217.447715 61.2678058,217 61.598161,217 L251.401839,217 C251.732194,217 252,217.447715 252,218 C252,218.552285 251.732194,219 251.401839,219 Z" id="Shape" fill="#371D72" fill-rule="nonzero"></path>
                <path d="M260.984341,219 L256.015659,219 C256.007011,219 256,218.552285 256,218 C256,217.447715 256.007011,217 256.015659,217 L260.984341,217 C260.992989,217 261,217.447715 261,218 C261,218.552285 260.992989,219 260.984341,219 Z" id="Shape" fill="#371D72" fill-rule="nonzero"></path>
                <text id="0" font-family="AvenirNextCyr-Demi, Avenir Next Cyr" font-size="19" font-weight="500" letter-spacing="0.356250048" fill="#371D72">
                    <tspan x="89.026875" y="140">0</tspan>
                </text>
            </g>
        </g>
    </g>
</svg>