<?xml version="1.0" encoding="UTF-8"?>
<svg width="264px" height="179px" viewBox="0 0 264 179" version="1.1" xmlns="http://www.w3.org/2000/svg" xmlns:xlink="http://www.w3.org/1999/xlink">
    <!-- Generator: sketchtool 49.1 (51147) - http://www.bohemiancoding.com/sketch -->
    <title>FAC8A4C7-780E-47C7-A3E7-25478CCBFAA6</title>
    <desc>Created with sketchtool.</desc>
    <defs>
        <linearGradient x1="0%" y1="0%" x2="100%" y2="100%" id="linearGradient-1">
            <stop stop-color="#62BAFF" offset="0%"></stop>
            <stop stop-color="#E659FF" offset="100%"></stop>
        </linearGradient>
        <linearGradient x1="63563%" y1="18010%" x2="74029%" y2="18010%" id="linearGradient-2">
            <stop stop-color="#E100FF" offset="0%"></stop>
            <stop stop-color="#DA09FF" offset="8%"></stop>
            <stop stop-color="#C823FF" offset="22%"></stop>
            <stop stop-color="#B33FFF" offset="34%"></stop>
            <stop stop-color="#9D3FFF" offset="46%"></stop>
            <stop stop-color="#783FFF" offset="64%"></stop>
            <stop stop-color="#4500E9" offset="99%"></stop>
        </linearGradient>
    </defs>
    <g id="Design-960" stroke="none" stroke-width="1" fill="none" fill-rule="evenodd">
        <g id="Contacts--send" transform="translate(-565.000000, -606.000000)" fill-rule="nonzero">
            <g id="Icon" transform="translate(539.000000, 606.000000)">
                <path d="M59.1314034,107.777452 C58.8735729,107.77822 58.626868,107.672489 58.4496099,107.485255 L54.7809115,103.816557 C54.395402,103.431047 54.395402,102.806013 54.7809115,102.420503 C55.166421,102.034994 55.7914553,102.034994 56.1769648,102.420503 L59.8456632,106.089202 C60.0340864,106.272563 60.1403774,106.524312 60.1403774,106.787228 C60.1403774,107.050144 60.0340864,107.301893 59.8456632,107.485255 C59.6558585,107.673689 59.3988569,107.778826 59.1314034,107.777452 Z" id="Shape" fill="#745CBC"></path>
                <path d="M55.4529651,107.777452 C55.1951345,107.77822 54.9484297,107.672489 54.7711715,107.485255 C54.5827484,107.301893 54.4764574,107.050144 54.4764574,106.787228 C54.4764574,106.524312 54.5827484,106.272563 54.7711715,106.089202 L58.43987,102.420503 C58.8253795,102.034994 59.4504138,102.034994 59.8359233,102.420503 C60.2214328,102.806013 60.2214328,103.431047 59.8359233,103.816557 L56.1672249,107.485255 C55.9774202,107.673689 55.7204186,107.778826 55.4529651,107.777452 Z" id="Shape" fill="#745CBC"></path>
                <path d="M221.428888,150.069113 C221.171058,150.069881 220.924353,149.964151 220.747095,149.776916 L217.078396,146.108218 C216.692887,145.722708 216.692887,145.097674 217.078396,144.712164 C217.463906,144.326655 218.08894,144.326655 218.47445,144.712164 L222.143148,148.380863 C222.331571,148.564225 222.437862,148.815974 222.437862,149.07889 C222.437862,149.341805 222.331571,149.593554 222.143148,149.776916 C221.946736,149.955128 221.69389,150.058564 221.428888,150.069113 Z" id="Shape" fill="#745CBC"></path>
                <path d="M217.76019,150.069113 C217.502359,150.069881 217.255655,149.964151 217.078396,149.776916 C216.889973,149.593554 216.783682,149.341805 216.783682,149.07889 C216.783682,148.815974 216.889973,148.564225 217.078396,148.380863 L220.747095,144.712164 C221.132604,144.326655 221.757639,144.326655 222.143148,144.712164 C222.528658,145.097674 222.528658,145.722708 222.143148,146.108218 L218.47445,149.776916 C218.281271,149.960193 218.026436,150.064444 217.76019,150.069113 Z" id="Shape" fill="#745CBC"></path>
                <path d="M288.217105,47.4675529 C287.959275,47.4683207 287.71257,47.3625901 287.535312,47.1753556 L283.866613,43.5066572 C283.481104,43.1211477 283.481104,42.4961134 283.866613,42.1106039 C284.252123,41.7250944 284.877157,41.7250944 285.262667,42.1106039 L288.931365,45.7793023 C289.119788,45.962664 289.226079,46.214413 289.226079,46.477329 C289.226079,46.7402449 289.119788,46.9919939 288.931365,47.1753556 C288.74156,47.3637899 288.484559,47.4689269 288.217105,47.4675529 Z" id="Shape" fill="#745CBC"></path>
                <path d="M284.580873,47.4675529 C284.323042,47.4683207 284.076338,47.3625901 283.899079,47.1753556 C283.710656,46.9919939 283.604365,46.7402449 283.604365,46.477329 C283.604365,46.214413 283.710656,45.962664 283.899079,45.7793023 L287.567778,42.1106039 C287.953287,41.7250944 288.578322,41.7250944 288.963831,42.1106039 C289.349341,42.4961134 289.349341,43.1211477 288.963831,43.5066572 L285.295133,47.1753556 C285.09872,47.3535672 284.845875,47.4570039 284.580873,47.4675529 Z" id="Shape" fill="#745CBC"></path>
                <path d="M43.1403449,63.0342203 L36.9392706,63.0342203 C36.4013504,63.0342203 35.9652799,62.5981498 35.9652799,62.0602296 C35.9652799,61.5223093 36.4013504,61.0862388 36.9392706,61.0862388 L43.1403449,61.0862388 C43.6782651,61.0862388 44.1143356,61.5223093 44.1143356,62.0602296 C44.1244858,62.3215276 44.0251325,62.5752073 43.8402276,62.7601122 C43.6553226,62.9450172 43.4016429,63.0443705 43.1403449,63.0342203 Z" id="Shape" fill="#C5BBF2"></path>
                <path d="M50.9972034,63.0342203 L48.0752313,63.0342203 C47.537311,63.0342203 47.1012405,62.5981498 47.1012405,62.0602296 C47.1012405,61.5223093 47.537311,61.0862388 48.0752313,61.0862388 L50.9972034,61.0862388 C51.5351237,61.0862388 51.9711942,61.5223093 51.9711942,62.0602296 C51.9711942,62.5981498 51.5351237,63.0342203 50.9972034,63.0342203 Z" id="Shape" fill="#C5BBF2"></path>
                <path d="M137.373489,150.393777 L128.899769,150.393777 C128.361849,150.393777 127.925779,149.957706 127.925779,149.419786 C127.925779,148.881866 128.361849,148.445796 128.899769,148.445796 L137.373489,148.445796 C137.911409,148.445796 138.347479,148.881866 138.347479,149.419786 C138.347479,149.957706 137.911409,150.393777 137.373489,150.393777 Z" id="Shape" fill="#C5BBF2"></path>
                <path d="M124.646676,150.393777 L121.042911,150.393777 C120.504991,150.393777 120.06892,149.957706 120.06892,149.419786 C120.06892,148.881866 120.504991,148.445796 121.042911,148.445796 L124.646676,148.445796 C125.184597,148.445796 125.620667,148.881866 125.620667,149.419786 C125.620667,149.957706 125.184597,150.393777 124.646676,150.393777 Z" id="Shape" fill="#C5BBF2"></path>
                <path d="M262.92414,127.251298 L259.125576,127.251298 C258.587656,127.251298 258.151585,126.815228 258.151585,126.277307 C258.151585,125.739387 258.587656,125.303317 259.125576,125.303317 L262.92414,125.303317 C263.46206,125.303317 263.898131,125.739387 263.898131,126.277307 C263.898131,126.815228 263.46206,127.251298 262.92414,127.251298 Z" id="Shape" fill="#745CBC"></path>
                <path d="M26.4229583,94.5548886 C27.5667343,93.7868181 28.908866,93.367261 30.2864548,93.3471401" id="Shape" fill="#FFFFFF"></path>
                <path d="M55.7303393,94.5548886 C54.5865632,93.7868181 53.2444316,93.367261 51.8668427,93.3471401" id="Shape" fill="#FFFFFF"></path>
                <rect id="Rectangle-path" fill="url(#linearGradient-1)" x="163.927722" y="95.9379554" width="13.8631347" height="82.003526"></rect>
                <rect id="Rectangle-path" fill="#000000" opacity="0.1" x="173.950087" y="95.9379554" width="4.6491824" height="82.003526"></rect>
                <rect id="Rectangle-path" fill="#000000" opacity="0.05" x="169.352851" y="95.9379554" width="4.6491824" height="82.003526"></rect>
                <rect id="Rectangle-path" fill="url(#linearGradient-1)" x="145.587477" y="86.2045414" width="50.3066211" height="4.75632138"></rect>
                <polygon id="Shape" fill="url(#linearGradient-1)" points="149.610059 90.9608628 191.871516 90.9608628 187.111948 95.7204308 154.36638 95.7204308"></polygon>
                <path d="M199.871227,28.057295 L139.526008,28.057295 C148.43153,28.057295 155.73646,34.0700645 156.457214,41.7223849 C156.496173,42.131461 156.515653,85.727286 156.515653,86.146102 L219.133517,86.146102 C219.133517,86.0259765 219.133517,83.3182823 219.133517,79.2924539 C219.133517,79.1885616 216.860872,79.0879159 216.860872,78.9677903 C216.860872,66.4422696 216.825159,41.8587436 216.786199,41.4983671 C215.948567,33.9629255 208.695583,28.057295 199.871227,28.057295 Z" id="Shape" fill="url(#linearGradient-1)"></path>
                <rect id="Rectangle-path" fill="#6E57B2" x="122.893493" y="44.8034423" width="33.1643843" height="37.2161857"></rect>
                <rect id="Rectangle-path" fill="url(#linearGradient-1)" x="122.461691" y="82.0845607" width="33.9792898" height="3.86349655"></rect>
                <path d="M122.461691,44.7677293 L122.461691,42.9041604 C122.461691,34.6706921 130.068558,27.995609 139.451336,27.995609 C148.834113,27.995609 156.44098,34.6706921 156.44098,42.9041604 L156.44098,44.7677293 L122.461691,44.7677293 Z" id="Shape" fill="url(#linearGradient-2)"></path>
                <path d="M86.9077824,32.1513027 C86.4290334,32.1513027 86.0409307,31.7632 86.0409307,31.284451 L86.0409307,29.3721825 C86.0689563,28.9148833 86.4480019,28.5583564 86.9061591,28.5583564 C87.3643163,28.5583564 87.7433619,28.9148833 87.7713875,29.3721825 L87.7713875,31.284451 C87.7713909,31.7619349 87.385263,32.1495144 86.9077824,32.1513027 Z" id="Shape" fill="#745CBC" style="mix-blend-mode: multiply;"></path>
                <path d="M85.0344736,34.0278582 L83.1222051,34.0278582 C82.8004401,34.0475776 82.4943091,33.8871141 82.3274626,33.6112811 C82.1606161,33.3354481 82.1606161,32.9898115 82.3274626,32.7139784 C82.4943091,32.4381454 82.8004401,32.2776819 83.1222051,32.2974013 L85.0344736,32.2974013 C85.4917728,32.325427 85.8482997,32.7044726 85.8482997,33.1626298 C85.8482997,33.6207869 85.4917728,33.9998326 85.0344736,34.0278582 Z" id="Shape" fill="#745CBC" style="mix-blend-mode: multiply;"></path>
                <path d="M86.9077824,37.8134355 C86.4290334,37.8134355 86.0409307,37.4253327 86.0409307,36.9465837 L86.0409307,35.0505485 C86.0689563,34.5932492 86.4480019,34.2367223 86.9061591,34.2367223 C87.3643163,34.2367223 87.7433619,34.5932492 87.7713875,35.0505485 L87.7713875,36.9628169 C87.7625662,37.4339544 87.3789995,37.8117532 86.9077824,37.8134355 Z" id="Shape" fill="#745CBC" style="mix-blend-mode: multiply;"></path>
                <path d="M90.6966064,34.0278582 L88.7843379,34.0278582 C88.3270387,33.9998326 87.9705118,33.6207869 87.9705118,33.1626298 C87.9705118,32.7044726 88.3270387,32.325427 88.7843379,32.2974013 L90.6966064,32.2974013 C91.1539056,32.325427 91.5104325,32.7044726 91.5104325,33.1626298 C91.5104325,33.6207869 91.1539056,33.9998326 90.6966064,34.0278582 Z" id="Shape" fill="#745CBC" style="mix-blend-mode: multiply;"></path>
                <path d="M243.824182,73.3608504 C241.609744,73.3608504 239.814587,71.5656935 239.814587,69.3512552 C239.814587,67.136817 241.609744,65.3416601 243.824182,65.3416601 C246.03862,65.3416601 247.833777,67.136817 247.833777,69.3512552 C247.831987,71.5649515 246.037878,73.3590601 243.824182,73.3608504 Z M243.824182,67.0721169 C242.569035,67.0721169 241.551537,68.0896148 241.551537,69.344762 C241.551537,70.5999092 242.569035,71.617407 243.824182,71.617407 C245.079329,71.617407 246.096827,70.5999092 246.096827,69.344762 C246.100284,68.7397721 245.862372,68.1583741 245.435793,67.7293576 C245.009215,67.3003411 244.429182,67.0591205 243.824182,67.0591304 L243.824182,67.0721169 Z" id="Shape" fill="#C5BBF2"></path>
                <path d="M216.873858,79.8995748 L156.785124,79.8995748 C156.336857,79.8995748 155.973465,79.5361827 155.973465,79.0879159 C155.973465,78.639649 156.336857,78.2762569 156.785124,78.2762569 L216.062199,78.2762569 L216.062199,44.8651284 C216.049678,36.041782 208.899114,28.89267 200.075765,28.8819405 L139.610421,28.8819405 C139.162154,28.8819405 138.798762,28.5185484 138.798762,28.0702816 C138.798762,27.6220147 139.162154,27.2586226 139.610421,27.2586226 L200.075765,27.2586226 C209.796172,27.2711432 217.672997,35.1479682 217.685517,44.868375 L217.685517,79.0879159 C217.685517,79.5361827 217.322125,79.8995748 216.873858,79.8995748 Z" id="Shape" fill="#371D72"></path>
                <rect id="Rectangle-path" fill="#000000" opacity="0.1" x="156.733178" y="45.2482314" width="60.1276942" height="33.4306084"></rect>
                <polygon id="Shape" fill="#FBE9FF" points="183.745187 11.113103 183.745187 0.723868597 168.07043 0.723868597 168.07043 36.3784225 163.752404 36.3784225 163.752404 48.7838177 176.157799 48.7838177 176.157799 36.3784225 171.84302 36.3784225 171.84302 11.113103"></polygon>
                <path d="M196.02721,91.4835712 L145.658903,91.4835712 C145.210636,91.4835712 144.847244,91.1201791 144.847244,90.6719122 L144.847244,86.1850616 C144.847244,85.7367948 145.210636,85.3734027 145.658903,85.3734027 L196.02721,85.3734027 C196.475477,85.3734027 196.838869,85.7367948 196.838869,86.1850616 L196.838869,90.6686656 C196.839732,90.8844929 196.7546,91.0917766 196.602291,91.2446951 C196.449981,91.3976136 196.243039,91.4835729 196.02721,91.4835712 Z M146.467315,89.8602533 L195.215551,89.8602533 L195.215551,86.9967206 L146.470562,86.9967206 L146.467315,89.8602533 Z" id="Shape" fill="#371D72"></path>
                <rect id="Rectangle-path" fill="#000000" opacity="0.1" x="181.423843" y="86.5162185" width="14.1748117" height="4.10699423"></rect>
                <polygon id="Shape" fill="#000000" opacity="0.1" points="187.027536 95.4347269 176.74544 95.1100633 176.74544 90.9998225 190.923499 90.9998225"></polygon>
                <path d="M176.203252,49.6604094 L163.866036,49.6604094 C163.41777,49.6604094 163.054377,49.2970173 163.054377,48.8487504 L163.054377,36.6089336 C163.054377,36.1606668 163.41777,35.7972747 163.866036,35.7972747 L167.310717,35.7972747 L167.398376,0.918666742 C167.400164,0.471668299 167.763033,0.110250863 168.210035,0.110254439 L183.845833,0.110254439 C184.2941,0.110254439 184.657492,0.473646524 184.657492,0.921913378 L184.657492,11.3858204 C184.657492,11.8340873 184.2941,12.1974794 183.845833,12.1974794 L172.787791,12.1974794 L172.787791,35.8784406 L176.203252,35.8784406 C176.651519,35.8784406 177.014911,36.2418327 177.014911,36.6900995 L177.014911,48.8487504 C177.014911,49.2970173 176.651519,49.6604094 176.203252,49.6604094 Z M164.684189,48.0370915 L175.398087,48.0370915 L175.398087,37.5050051 L171.976133,37.5050051 C171.527866,37.5050051 171.164474,37.141613 171.164474,36.6933461 L171.164474,11.3858204 C171.164474,10.9375536 171.527866,10.5741615 171.976133,10.5741615 L183.040667,10.5741615 L183.040667,1.73357232 L169.024941,1.73357232 L168.937281,36.6121803 C168.935493,37.0591787 168.572625,37.4205961 168.125623,37.4205926 L164.684189,37.4205926 L164.684189,48.0370915 Z" id="Shape" fill="#371D72"></path>
                <path d="M187.163895,96.3665114 L154.528712,96.3665114 C154.309635,96.3660636 154.100042,96.2770745 153.947564,96.119767 L149.295135,91.3342259 C149.088657,91.1273771 149.009331,90.8254915 149.087452,90.5438592 C149.165574,90.2622269 149.389077,90.0443423 149.672607,89.9734155 C149.956136,89.9024887 150.255905,89.9894733 150.457431,90.2011501 L154.869609,94.7464401 L186.819751,94.7464401 L191.166996,90.272576 C191.368243,90.061725 191.667095,89.9749724 191.949961,90.0452927 C192.232827,90.115613 192.456268,90.3322074 192.535354,90.6127488 C192.61444,90.8932903 192.537027,91.1946971 192.332539,91.4024053 L187.745042,96.119767 C187.592565,96.2770745 187.382972,96.3660636 187.163895,96.3665114 Z" id="Shape" fill="#371D72"></path>
                <path d="M178.287592,178.707687 C177.839326,178.707687 177.475934,178.344295 177.475934,177.896028 L177.475934,95.7626371 C177.475934,95.3143703 177.839326,94.9509782 178.287592,94.9509782 C178.735859,94.9509782 179.099251,95.3143703 179.099251,95.7626371 L179.099251,177.902522 C179.095685,178.348251 178.733336,178.707702 178.287592,178.707687 Z" id="Shape" fill="#371D72"></path>
                <path d="M163.353068,178.707687 C162.904801,178.707687 162.541409,178.344295 162.541409,177.896028 L162.541409,95.7626371 C162.541409,95.3143703 162.904801,94.9509782 163.353068,94.9509782 C163.801335,94.9509782 164.164727,95.3143703 164.164727,95.7626371 L164.164727,177.902522 C164.161161,178.348251 163.798811,178.707702 163.353068,178.707687 Z" id="Shape" fill="#371D72"></path>
                <path d="M139.464322,115.36907 C148.847099,115.36907 156.453967,108.693987 156.453967,100.460519 L156.453967,85.9513039 L122.461691,85.9513039 L122.461691,100.460519 C122.461691,108.693987 130.068558,115.36907 139.464322,115.36907 Z" id="Shape" fill="url(#linearGradient-1)"></path>
                <path d="M122.786354,45.0923929 L122.786354,43.2288239 C122.786354,34.9953556 130.393222,28.3202725 139.775999,28.3202725 C149.158776,28.3202725 156.765644,34.9953556 156.765644,43.2288239 L156.765644,45.0923929 L122.786354,45.0923929 Z" id="Shape" fill="#FBE9FF"></path>
                <path d="M139.610421,116.317088 C129.779896,116.306352 121.813359,108.339815 121.802624,98.509291 L121.802624,45.0599265 C121.802624,35.2249517 129.775446,27.2521294 139.610421,27.2521294 C149.445395,27.2521294 157.418218,35.2249517 157.418218,45.0599265 L157.418218,98.509291 C157.407482,108.339815 149.440945,116.306352 139.610421,116.317088 Z M139.610421,28.8786939 C130.675689,28.887642 123.43489,36.1284411 123.425941,45.0631731 L123.425941,98.509291 C123.43489,107.444023 130.675689,114.684822 139.610421,114.69377 C148.545153,114.684822 155.785952,107.444023 155.7949,98.509291 L155.7949,45.0599265 C155.782374,36.1277304 148.542621,28.8908818 139.610421,28.8819405 L139.610421,28.8786939 Z" id="Shape" fill="#371D72"></path>
                <path d="M219.14975,86.9967206 L156.616299,86.9967206 C156.168032,86.9967206 155.80464,86.6333285 155.80464,86.1850616 L155.80464,79.0749293 C155.80464,78.6266625 156.168032,78.2632704 156.616299,78.2632704 L219.14975,78.2632704 C219.598017,78.2632704 219.961409,78.6266625 219.961409,79.0749293 L219.961409,86.1850616 C219.961409,86.6333285 219.598017,86.9967206 219.14975,86.9967206 Z M157.427958,85.3734027 L218.338091,85.3734027 L218.338091,79.8865883 L157.427958,79.8865883 L157.427958,85.3734027 Z" id="Shape" fill="#371D72"></path>
                <path d="M156.473447,86.9967206 L122.783108,86.9967206 C122.334841,86.9967206 121.971449,86.6333285 121.971449,86.1850616 C121.971449,85.7367948 122.334841,85.3734027 122.783108,85.3734027 L156.473447,85.3734027 C156.921714,85.3734027 157.285106,85.7367948 157.285106,86.1850616 C157.285106,86.6333285 156.921714,86.9967206 156.473447,86.9967206 Z" id="Shape" fill="#371D72"></path>
                <path d="M156.473447,82.7760941 L122.783108,82.7760941 C122.334841,82.7760941 121.971449,82.412702 121.971449,81.9644351 C121.971449,81.5161683 122.334841,81.1527762 122.783108,81.1527762 L156.473447,81.1527762 C156.921714,81.1527763 157.285106,81.5161683 157.285106,81.9644351 C157.285106,82.412702 156.921714,82.776094 156.473447,82.7760941 Z" id="Shape" fill="#371D72"></path>
                <circle id="Oval" fill="#381F72" cx="161.453786" cy="82.5261031" r="1.03892344"></circle>
                <circle id="Oval" fill="#381F72" cx="188.076199" cy="82.5261031" r="1.03892344"></circle>
                <circle id="Oval" fill="#381F72" cx="214.373949" cy="82.5261031" r="1.03892344"></circle>
                <path d="M156.473447,45.4397829 L122.783108,45.4397829 C122.334841,45.4397829 121.971449,45.0763908 121.971449,44.6281239 C121.971449,44.1798571 122.334841,43.816465 122.783108,43.816465 L156.473447,43.816465 C156.921714,43.816465 157.285106,44.1798571 157.285106,44.6281239 C157.285106,45.0763908 156.921714,45.4397829 156.473447,45.4397829 Z" id="Shape" fill="#371D72"></path>
                <circle id="Oval" fill="#381F72" cx="170.219703" cy="42.9171469" r="1.03892344"></circle>
                <path d="M222.614196,178.876512 L105.262499,178.876512 C105.058248,178.876512 104.892669,178.51312 104.892669,178.064854 C104.892669,177.616587 105.058248,177.253195 105.262499,177.253195 L222.614196,177.253195 C222.818448,177.253195 222.984027,177.616587 222.984027,178.064854 C222.984027,178.51312 222.818448,178.876512 222.614196,178.876512 Z" id="Shape" fill="#371D72"></path>
                <path d="M242.626173,178.876512 L229.694823,178.876512 C229.246556,178.876512 228.883164,178.51312 228.883164,178.064854 C228.883164,177.616587 229.246556,177.253195 229.694823,177.253195 L242.626173,177.253195 C243.07444,177.253195 243.437832,177.616587 243.437832,178.064854 C243.437832,178.51312 243.07444,178.876512 242.626173,178.876512 Z" id="Shape" fill="#371D72"></path>
                <path d="M98.5720265,178.876512 L95.9390049,178.876512 C95.490738,178.876512 95.1273459,178.51312 95.1273459,178.064854 C95.1273459,177.616587 95.490738,177.253195 95.9390049,177.253195 L98.5720265,177.253195 C99.0202933,177.253195 99.3836854,177.616587 99.3836854,178.064854 C99.3836854,178.51312 99.0202933,178.876512 98.5720265,178.876512 Z" id="Shape" fill="#371D72"></path>
                <path d="M87.3756915,92.8373855 C85.7539616,92.8373855 84.2919178,91.860479 83.6713086,90.362196 C83.0506995,88.863913 83.3937434,87.1393146 84.5404796,85.9925784 C85.6872158,84.8458422 87.4118141,84.5027983 88.9100971,85.1234074 C90.4083802,85.7440166 91.3852867,87.2060605 91.3852867,88.8277903 C91.3834964,91.0414866 89.5893878,92.8355952 87.3756915,92.8373855 Z M87.3756915,86.548652 C86.1205443,86.548652 85.1030465,87.5661499 85.1030465,88.8212971 C85.1030465,90.0764443 86.1205443,91.0939421 87.3756915,91.0939421 C88.6308387,91.0939421 89.6483365,90.0764443 89.6483365,88.8212971 C89.6517937,88.2163072 89.413882,87.6349092 88.9873031,87.2058927 C88.5607242,86.7768762 87.9806913,86.5356556 87.3756915,86.5356655 L87.3756915,86.548652 Z" id="Shape" fill="#C5BBF2"></path>
                <path d="M68.4440993,151.319035 L64.6455355,151.319035 C64.1076152,151.319035 63.6715447,150.882965 63.6715447,150.345045 C63.6715447,149.807124 64.1076152,149.371054 64.6455355,149.371054 L68.4440993,149.371054 C68.9820195,149.371054 69.41809,149.807124 69.41809,150.345045 C69.41809,150.882965 68.9820195,151.319035 68.4440993,151.319035 Z" id="Shape" fill="#C5BBF2"></path>
                <path d="M234.305046,12.9961518 C233.826297,12.9961518 233.438194,12.608049 233.438194,12.1293 L233.438194,10.2202782 C233.46622,9.76297898 233.845265,9.40645206 234.303422,9.40645206 C234.76158,9.40645206 235.140625,9.76297898 235.168651,10.2202782 L235.168651,12.1325466 C235.166871,12.6087632 234.781262,12.9943715 234.305046,12.9961518 Z" id="Shape" fill="#745CBC" style="mix-blend-mode: multiply;"></path>
                <path d="M232.431737,14.8727072 L230.519469,14.8727072 C230.062169,14.8446816 229.705642,14.465636 229.705642,14.0074788 C229.705642,13.5493216 230.062169,13.170276 230.519469,13.1422504 L232.431737,13.1422504 C232.753502,13.122531 233.059633,13.2829944 233.226479,13.5588275 C233.393326,13.8346605 233.393326,14.1802971 233.226479,14.4561301 C233.059633,14.7319632 232.753502,14.8924266 232.431737,14.8727072 Z" id="Shape" fill="#745CBC" style="mix-blend-mode: multiply;"></path>
                <path d="M234.305046,18.6582845 C233.826297,18.6582845 233.438194,18.2701818 233.438194,17.7914328 L233.438194,15.8953975 C233.418475,15.5736324 233.578938,15.2675015 233.854771,15.100655 C234.130604,14.9338085 234.476241,14.9338085 234.752074,15.100655 C235.027907,15.2675015 235.18837,15.5736324 235.168651,15.8953975 L235.168651,17.807666 C235.15983,18.2788034 234.776263,18.6566022 234.305046,18.6582845 Z" id="Shape" fill="#745CBC" style="mix-blend-mode: multiply;"></path>
                <path d="M238.09387,14.8727072 L236.181601,14.8727072 C235.724302,14.8446816 235.367775,14.465636 235.367775,14.0074788 C235.367775,13.5493216 235.724302,13.170276 236.181601,13.1422504 L238.09387,13.1422504 C238.415635,13.122531 238.721766,13.2829944 238.888612,13.5588275 C239.055459,13.8346605 239.055459,14.1802971 238.888612,14.4561301 C238.721766,14.7319632 238.415635,14.8924266 238.09387,14.8727072 Z" id="Shape" fill="#745CBC" style="mix-blend-mode: multiply;"></path>
            </g>
        </g>
    </g>
</svg>