<?xml version="1.0" encoding="UTF-8"?>
<svg width="36px" height="31px" viewBox="0 0 36 31" version="1.1" xmlns="http://www.w3.org/2000/svg" xmlns:xlink="http://www.w3.org/1999/xlink">
    <!-- Generator: Sketch 47.1 (45422) - http://www.bohemiancoding.com/sketch -->
    <title>Page 1</title>
    <desc>Created with Sketch.</desc>
    <defs>
        <polygon id="path-1" points="18 31 36 31 36 0 18 0 0 0 0 31"></polygon>
        <linearGradient x1="0%" y1="0%" x2="100%" y2="100%" id="linearGradient-3">
            <stop stop-color="#62BAFF" offset="0%"></stop>
            <stop stop-color="#E659FF" offset="100%"></stop>
        </linearGradient>
    </defs>
    <g id="Design-960" stroke="none" stroke-width="1" fill="none" fill-rule="evenodd">
        <g id="Delivery-" transform="translate(-610.000000, -540.000000)">
            <g id="Page-1" transform="translate(610.000000, 540.000000)">
                <mask id="mask-2" fill="white">
                    <use xlink:href="#path-1"></use>
                </mask>
                <g id="Clip-2"></g>
                <path d="M22.74975,8.11904762 L13.74975,8.11904762 C12.50925,8.11904762 11.49975,7.12557143 11.49975,5.9047619 C11.49975,4.68395238 12.50925,3.69047619 13.74975,3.69047619 L22.74975,3.69047619 C23.99025,3.69047619 24.99975,4.68395238 24.99975,5.9047619 C24.99975,7.12557143 23.99025,8.11904762 22.74975,8.11904762 L22.74975,8.11904762 Z M24.78,18.9742143 C24.63375,19.1181429 24.44175,19.1904762 24.24975,19.1904762 C24.05775,19.1904762 23.86575,19.1181429 23.7195,18.9742143 L22.74975,18.0198571 L22.74975,22.8809524 C22.74975,23.289119 22.41375,23.6190476 21.99975,23.6190476 C21.58575,23.6190476 21.24975,23.289119 21.24975,22.8809524 L21.24975,18.0198571 L20.28,18.9742143 C20.13375,19.1181429 19.94175,19.1904762 19.74975,19.1904762 C19.55775,19.1904762 19.36575,19.1181429 19.2195,18.9742143 C18.92625,18.685619 18.92625,18.2191429 19.2195,17.9305476 L21.46875,15.717 C21.53775,15.6483571 21.621,15.5944762 21.71325,15.5568333 C21.89625,15.4822857 22.10325,15.4822857 22.28625,15.5568333 C22.3785,15.5944762 22.461,15.6483571 22.53075,15.717 L24.78,17.9305476 C25.07325,18.2191429 25.07325,18.685619 24.78,18.9742143 L24.78,18.9742143 Z M24.24975,26.5714286 L12.24975,26.5714286 C11.83575,26.5714286 11.49975,26.2415 11.49975,25.8333333 C11.49975,25.4251667 11.83575,25.0952381 12.24975,25.0952381 L24.24975,25.0952381 C24.66375,25.0952381 24.99975,25.4251667 24.99975,25.8333333 C24.99975,26.2415 24.66375,26.5714286 24.24975,26.5714286 L24.24975,26.5714286 Z M12.78,18.9742143 C12.63375,19.1181429 12.44175,19.1904762 12.24975,19.1904762 C12.05775,19.1904762 11.86575,19.1181429 11.7195,18.9742143 C11.42625,18.685619 11.42625,18.2191429 11.7195,17.9305476 L13.96875,15.717 C14.03775,15.6483571 14.121,15.5944762 14.21325,15.5568333 C14.39625,15.4822857 14.60325,15.4822857 14.78625,15.5568333 C14.8785,15.5944762 14.961,15.6483571 15.03075,15.717 L17.28,17.9305476 C17.57325,18.2191429 17.57325,18.685619 17.28,18.9742143 C17.13375,19.1181429 16.94175,19.1904762 16.74975,19.1904762 C16.55775,19.1904762 16.36575,19.1181429 16.2195,18.9742143 L15.24975,18.0198571 L15.24975,22.8809524 C15.24975,23.289119 14.91375,23.6190476 14.49975,23.6190476 C14.08575,23.6190476 13.74975,23.289119 13.74975,22.8809524 L13.74975,18.0198571 L12.78,18.9742143 Z M0,31 L36,31 L36,0 L0,0 L0,31 Z" id="Fill-1" fill="url(#linearGradient-3)" mask="url(#mask-2)"></path>
            </g>
        </g>
    </g>
</svg>