<?xml version="1.0" encoding="UTF-8"?>
<svg width="30px" height="34px" viewBox="0 0 30 34" version="1.1" xmlns="http://www.w3.org/2000/svg" xmlns:xlink="http://www.w3.org/1999/xlink">
    <!-- Generator: Sketch 47.1 (45422) - http://www.bohemiancoding.com/sketch -->
    <title>Group 2 Copy</title>
    <desc>Created with Sketch.</desc>
    <defs>
        <linearGradient x1="0%" y1="0%" x2="100%" y2="100%" id="linearGradient-1">
            <stop stop-color="#62BAFF" offset="0%"></stop>
            <stop stop-color="#E659FF" offset="100%"></stop>
        </linearGradient>
        <polygon id="path-2" points="0 5.09364355e-15 12.1884615 0 12.1884615 3.27461078 6.95399598e-22 3.27461078 6.95399598e-22 0"></polygon>
    </defs>
    <g id="Design-960" stroke="none" stroke-width="1" fill="none" fill-rule="evenodd">
        <g id="Delivery-" transform="translate(-240.000000, -538.000000)">
            <g id="Group-2-Copy" transform="translate(240.000000, 538.000000)">
                <g id="Page-1" transform="translate(18.787879, 12.212121)">
                    <path d="M6.69390337,5.95894586 C6.60390516,6.05157472 6.49713818,6.09788916 6.37380176,6.09788916 L4.55268351,6.09788916 C4.42944676,6.09788916 4.32272961,6.05154911 4.2325819,5.95894586 C4.14250894,5.86629137 4.09743509,5.75662761 4.09743509,5.62977524 C4.09743509,5.50302535 4.14250894,5.39331035 4.2325819,5.30068148 C4.3227047,5.208027 4.42942184,5.16168695 4.55268351,5.16168695 L6.37397618,5.16168695 C6.49718801,5.16168695 6.60390516,5.208027 6.69407778,5.30068148 C6.78412582,5.39328473 6.82917476,5.50299973 6.82917476,5.62977524 C6.82917476,5.75660199 6.78402616,5.86629137 6.69390337,5.95894586 M10.4714611,3.75757576 L0.455323167,3.75757576 C0.331936918,3.75757576 0.225219772,3.80386457 0.135146813,3.89651906 C0.0450240212,3.98912231 0,4.09883731 0,4.22561282 L0,11.2466555 C0,11.373431 0.0450240212,11.4831716 0.135146813,11.5757492 C0.225219772,11.6684037 0.331936918,11.714795 0.455323167,11.714795 L10.4714611,11.714795 C10.5947975,11.714795 10.701415,11.6684037 10.7915627,11.5757492 C10.8816107,11.4831972 10.9266348,11.3734566 10.9266348,11.2466555 L10.9266348,4.22561282 C10.9266348,4.09876046 10.8817852,3.98914792 10.7915627,3.89651906 C10.7015147,3.80386457 10.5947975,3.75757576 10.4714611,3.75757576" id="Fill-1" fill="url(#linearGradient-1)"></path>
                    <g id="Group-5">
                        <mask id="mask-3" fill="white">
                            <use xlink:href="#path-2"></use>
                        </mask>
                        <g id="Clip-4"></g>
                        <path d="M11.0608213,0.162011851 C10.9756145,0.053974081 10.8748171,0 10.7582171,0 L0.430320205,0 C0.31379085,0 0.212922777,0.053974081 0.127763086,0.162011851 C0.042603396,0.269989883 0,0.397920701 0,0.545744568 L0,2.72887219 C0,2.87666618 0.042603396,3.00453726 0.127786637,3.1126049 C0.212946327,3.22064267 0.31379085,3.27461676 0.430343756,3.27461676 L10.7580993,3.27461676 C10.8746287,3.27461676 10.9755439,3.22064267 11.0608213,3.1126049 C11.1459103,3.00456713 11.1884666,2.87669605 11.1884666,2.72887219 L11.1884666,0.545744568 C11.1884666,0.397831093 11.1459103,0.269989883 11.0608213,0.162011851" id="Fill-3" fill="url(#linearGradient-1)" mask="url(#mask-3)"></path>
                    </g>
                </g>
                <g id="Page-1" fill="url(#linearGradient-1)">
                    <path d="M5.27530602,18.5217274 C4.31806482,18.9677315 3.1747801,18.5651157 2.72188988,17.622517 C2.26891046,16.6797426 2.67774244,15.5539291 3.63498364,15.1078371 C4.59222483,14.6618329 5.73542037,15.0644487 6.18839978,16.0070475 C6.64137919,16.949734 6.23254721,18.0756354 5.27530602,18.5217274 Z M23.4848485,9.21738545 L23.4848485,0 L0,0 L0,33.8181818 L23.4848485,33.8181818 L23.4848485,26.5447076 L16.8016407,26.5447076 L16.8016407,9.21738545 L23.4848485,9.21738545 Z" id="Fill-1"></path>
                </g>
            </g>
        </g>
    </g>
</svg>