<svg width="24" height="24" viewBox="0 0 24 24" fill="none" xmlns="http://www.w3.org/2000/svg">
<g id="local_shipping">
<mask id="mask0_359_6756" style="mask-type:alpha" maskUnits="userSpaceOnUse" x="0" y="0" width="24" height="24">
<rect id="Bounding box" width="24" height="24" fill="#D9D9D9"/>
</mask>
<g mask="url(#mask0_359_6756)">
<path id="local_shipping_2" d="M5.68688 19.1154C4.95913 19.1154 4.34206 18.8611 3.83566 18.3526C3.32924 17.844 3.07603 17.2265 3.07603 16.5H1.69141V6.61537C1.69141 6.15512 1.84557 5.77083 2.15391 5.4625C2.46224 5.15417 2.84654 5 3.30681 5H16.5376V8.61537H18.8453L22.3068 13.2692V16.5H20.6914C20.6914 17.2265 20.4367 17.844 19.9273 18.3526C19.4178 18.8611 18.7993 19.1154 18.0715 19.1154C17.3438 19.1154 16.7267 18.8611 16.2203 18.3526C15.7138 17.844 15.4606 17.2265 15.4606 16.5H8.30681C8.30681 17.2308 8.05209 17.8494 7.54266 18.3558C7.03324 18.8622 6.41465 19.1154 5.68688 19.1154ZM5.69141 18.1154C6.14141 18.1154 6.52314 17.9586 6.83661 17.6452C7.15007 17.3317 7.30681 16.95 7.30681 16.5C7.30681 16.05 7.15007 15.6683 6.83661 15.3548C6.52314 15.0414 6.14141 14.8846 5.69141 14.8846C5.24141 14.8846 4.85968 15.0414 4.54623 15.3548C4.23276 15.6683 4.07603 16.05 4.07603 16.5C4.07603 16.95 4.23276 17.3317 4.54623 17.6452C4.85968 17.9586 5.24141 18.1154 5.69141 18.1154ZM2.69141 15.5H3.33758C3.47988 15.059 3.76962 14.6795 4.20681 14.3616C4.64399 14.0436 5.13886 13.8846 5.69141 13.8846C6.21834 13.8846 6.70681 14.0404 7.15681 14.3519C7.60681 14.6635 7.90296 15.0462 8.04526 15.5H15.5376V6H3.30681C3.15296 6 3.01193 6.0641 2.88373 6.1923C2.75551 6.32052 2.69141 6.46154 2.69141 6.61537V15.5ZM18.076 18.1154C18.526 18.1154 18.9078 17.9586 19.2212 17.6452C19.5347 17.3317 19.6914 16.95 19.6914 16.5C19.6914 16.05 19.5347 15.6683 19.2212 15.3548C18.9078 15.0414 18.526 14.8846 18.076 14.8846C17.626 14.8846 17.2443 15.0414 16.9308 15.3548C16.6174 15.6683 16.4607 16.05 16.4607 16.5C16.4607 16.95 16.6174 17.3317 16.9308 17.6452C17.2443 17.9586 17.626 18.1154 18.076 18.1154ZM16.5376 13.5H21.2491L18.3068 9.61538H16.5376V13.5Z" fill="#C18C43"/>
</g>
</g>
</svg>
