<svg xmlns="http://www.w3.org/2000/svg" width="32" height="32" fill="none"><g clip-path="url(#clip0)"><path fill="#DF5C98" d="M0 0h32.012v32.012H0z"/><path d="M16.007 6.156c-2.675 0-3.011.012-4.062.06-1.049.047-1.764.213-2.39.457A4.823 4.823 0 007.81 7.81a4.836 4.836 0 00-1.137 1.745c-.245.626-.41 1.342-.458 2.39-.047 1.051-.06 1.387-.06 4.062 0 2.675.013 3.01.06 4.06.048 1.05.215 1.765.458 2.391a4.826 4.826 0 001.136 1.745 4.822 4.822 0 001.744 1.137c.627.244 1.343.41 2.391.458 1.051.047 1.386.06 4.062.06 2.675 0 3.01-.013 4.06-.06 1.049-.048 1.765-.214 2.392-.458a4.819 4.819 0 001.744-1.137 4.835 4.835 0 001.137-1.745c.242-.626.408-1.342.457-2.39.047-1.05.06-1.386.06-4.061s-.013-3.01-.06-4.062c-.049-1.048-.215-1.764-.457-2.39a4.834 4.834 0 00-1.137-1.745 4.815 4.815 0 00-1.745-1.136c-.628-.244-1.344-.41-2.392-.458-1.051-.047-1.386-.06-4.061-.06h.003zm-.884 1.775h.884c2.63 0 2.941.01 3.98.057.96.044 1.482.204 1.829.339.46.178.787.392 1.132.737.345.344.558.673.737 1.132.135.347.295.868.339 1.829.047 1.038.057 1.35.057 3.979 0 2.628-.01 2.94-.057 3.979-.044.96-.204 1.481-.34 1.828-.178.46-.392.787-.736 1.132a3.047 3.047 0 01-1.132.736c-.347.136-.869.296-1.83.34-1.037.047-1.35.057-3.98.057s-2.941-.01-3.98-.057c-.96-.044-1.481-.205-1.829-.34a3.052 3.052 0 01-1.132-.736 3.053 3.053 0 01-.737-1.133c-.135-.346-.296-.868-.34-1.828-.047-1.038-.056-1.35-.056-3.98 0-2.631.01-2.941.056-3.98.044-.96.205-1.481.34-1.829a3.03 3.03 0 01.737-1.132 3.057 3.057 0 011.132-.737c.348-.136.869-.296 1.83-.34.908-.041 1.26-.053 3.096-.055v.002zm6.142 1.636a1.182 1.182 0 100 2.364 1.182 1.182 0 000-2.365zm-5.258 1.38a5.059 5.059 0 100 10.118 5.059 5.059 0 000-10.117zm0 1.776a3.283 3.283 0 110 6.566 3.283 3.283 0 010-6.566z" fill="#fff"/></g><defs><clipPath id="clip0"><rect width="32" height="32" rx="16" fill="#fff"/></clipPath></defs></svg>