<?xml version="1.0" encoding="UTF-8"?>
<svg width="32px" height="22px" viewBox="0 0 32 22" version="1.1" xmlns="http://www.w3.org/2000/svg" xmlns:xlink="http://www.w3.org/1999/xlink">
    <!-- Generator: Sketch 47.1 (45422) - http://www.bohemiancoding.com/sketch -->
    <title>Page 1 Copy 4</title>
    <desc>Created with Sketch.</desc>
    <defs>
        <linearGradient x1="0%" y1="0%" x2="100%" y2="100%" id="linearGradient-1">
            <stop stop-color="#62BAFF" offset="0%"></stop>
            <stop stop-color="#E659FF" offset="100%"></stop>
        </linearGradient>
        <polygon id="path-2" points="0 0.752446894 0 4.845161 31.9100444 4.845161 31.9100444 0.752446894"></polygon>
    </defs>
    <g id="Design-960" stroke="none" stroke-width="1" fill="none" fill-rule="evenodd">
        <g id="Payment-" transform="translate(-242.000000, -816.000000)">
            <g id="Page-1-Copy-4" transform="translate(242.000000, 816.000000)">
                <g id="Group-3" fill="url(#linearGradient-1)">
                    <path d="M8.6648,10.3054846 C7.97235556,10.3054846 7.34568889,10.0323609 6.88346667,9.5918389 C6.42124444,10.0323609 5.79368889,10.3054846 5.10302222,10.3054846 C3.68257778,10.3054846 2.52968889,9.16453252 2.52968889,7.75398093 C2.52968889,6.34519143 3.68168889,5.20335829 5.10302222,5.20335829 C5.79457778,5.20335829 6.42213333,5.47648196 6.88346667,5.917004 C7.34568889,5.47648196 7.97235556,5.20335829 8.6648,5.20335829 C10.0861333,5.20335829 11.2381333,6.34519143 11.2381333,7.75398093 C11.2381333,9.16453252 10.0861333,10.3054846 8.6648,10.3054846 M28.4168,0.680077933 L3.62302222,0.680077933 C1.67013333,0.680077933 -8.88888889e-05,2.23952597 -8.88888889e-05,4.17517984 L-8.88888889e-05,13.470195 L31.9092444,13.470195 L31.9092444,4.17517984 C31.9092444,2.23952597 30.3696889,0.680077933 28.4168,0.680077933" id="Fill-1"></path>
                </g>
                <g id="Group-6" transform="translate(0.000000, 16.941176)">
                    <mask id="mask-3" fill="white">
                        <use xlink:href="#path-2"></use>
                    </mask>
                    <g id="Clip-5"></g>
                    <path d="M-0.000177777778,0.979227643 C-0.000177777778,3.10747775 1.66915556,4.845161 3.62293333,4.845161 L28.4167111,4.845161 C30.3696,4.845161 31.9100444,3.10747775 31.9100444,0.979227643 L31.9100444,0.752446894 L-0.000177777778,0.752446894 L-0.000177777778,0.979227643 Z" id="Fill-4" fill="url(#linearGradient-1)" mask="url(#mask-3)"></path>
                </g>
            </g>
        </g>
    </g>
</svg>