<?xml version="1.0" encoding="UTF-8"?>
<svg width="40px" height="31px" viewBox="0 0 40 31" version="1.1" xmlns="http://www.w3.org/2000/svg" xmlns:xlink="http://www.w3.org/1999/xlink">
    <!-- Generator: Sketch 47.1 (45422) - http://www.bohemiancoding.com/sketch -->
    <title>Group 2</title>
    <desc>Created with Sketch.</desc>
    <defs>
        <polygon id="path-1" points="13.5 23.25 27 23.25 27 0 13.5 0 0 0 0 23.25"></polygon>
        <linearGradient x1="0%" y1="0%" x2="100%" y2="100%" id="linearGradient-3">
            <stop stop-color="#62BAFF" offset="0%"></stop>
            <stop stop-color="#E659FF" offset="100%"></stop>
        </linearGradient>
    </defs>
    <g id="Design-960" stroke="none" stroke-width="1" fill="none" fill-rule="evenodd">
        <g id="Payment-" transform="translate(-233.000000, -243.000000)">
            <g id="Group-2" transform="translate(234.000000, 243.000000)">
                <g id="Page-1" transform="translate(12.000000, 0.000000)">
                    <mask id="mask-2" fill="white">
                        <use xlink:href="#path-1"></use>
                    </mask>
                    <g id="Clip-2"></g>
                    <path d="M17.0623125,6.08928571 L10.3123125,6.08928571 C9.3819375,6.08928571 8.6248125,5.34417857 8.6248125,4.42857143 C8.6248125,3.51296429 9.3819375,2.76785714 10.3123125,2.76785714 L17.0623125,2.76785714 C17.9926875,2.76785714 18.7498125,3.51296429 18.7498125,4.42857143 C18.7498125,5.34417857 17.9926875,6.08928571 17.0623125,6.08928571 L17.0623125,6.08928571 Z M18.585,14.2306607 C18.4753125,14.3386071 18.3313125,14.3928571 18.1873125,14.3928571 C18.0433125,14.3928571 17.8993125,14.3386071 17.789625,14.2306607 L17.0623125,13.5148929 L17.0623125,17.1607143 C17.0623125,17.4668393 16.8103125,17.7142857 16.4998125,17.7142857 C16.1893125,17.7142857 15.9373125,17.4668393 15.9373125,17.1607143 L15.9373125,13.5148929 L15.21,14.2306607 C15.1003125,14.3386071 14.9563125,14.3928571 14.8123125,14.3928571 C14.6683125,14.3928571 14.5243125,14.3386071 14.414625,14.2306607 C14.1946875,14.0142143 14.1946875,13.6643571 14.414625,13.4479107 L16.1015625,11.78775 C16.1533125,11.7362679 16.21575,11.6958571 16.2849375,11.667625 C16.4221875,11.6117143 16.5774375,11.6117143 16.7146875,11.667625 C16.783875,11.6958571 16.84575,11.7362679 16.8980625,11.78775 L18.585,13.4479107 C18.8049375,13.6643571 18.8049375,14.0142143 18.585,14.2306607 L18.585,14.2306607 Z M18.1873125,19.9285714 L9.1873125,19.9285714 C8.8768125,19.9285714 8.6248125,19.681125 8.6248125,19.375 C8.6248125,19.068875 8.8768125,18.8214286 9.1873125,18.8214286 L18.1873125,18.8214286 C18.4978125,18.8214286 18.7498125,19.068875 18.7498125,19.375 C18.7498125,19.681125 18.4978125,19.9285714 18.1873125,19.9285714 L18.1873125,19.9285714 Z M9.585,14.2306607 C9.4753125,14.3386071 9.3313125,14.3928571 9.1873125,14.3928571 C9.0433125,14.3928571 8.8993125,14.3386071 8.789625,14.2306607 C8.5696875,14.0142143 8.5696875,13.6643571 8.789625,13.4479107 L10.4765625,11.78775 C10.5283125,11.7362679 10.59075,11.6958571 10.6599375,11.667625 C10.7971875,11.6117143 10.9524375,11.6117143 11.0896875,11.667625 C11.158875,11.6958571 11.22075,11.7362679 11.2730625,11.78775 L12.96,13.4479107 C13.1799375,13.6643571 13.1799375,14.0142143 12.96,14.2306607 C12.8503125,14.3386071 12.7063125,14.3928571 12.5623125,14.3928571 C12.4183125,14.3928571 12.2743125,14.3386071 12.164625,14.2306607 L11.4373125,13.5148929 L11.4373125,17.1607143 C11.4373125,17.4668393 11.1853125,17.7142857 10.8748125,17.7142857 C10.5643125,17.7142857 10.3123125,17.4668393 10.3123125,17.1607143 L10.3123125,13.5148929 L9.585,14.2306607 Z M0,23.25 L27,23.25 L27,0 L0,0 L0,23.25 Z" id="Fill-1" fill="url(#linearGradient-3)" mask="url(#mask-2)"></path>
                </g>
                <circle id="Oval" stroke="#9A9FFC" stroke-width="2" fill="#FFFFFF" cx="10" cy="20" r="10"></circle>
                <path d="M5.95,18.728 L5.95,19.652 L9.03,19.652 C8.288,20.016 7.798,20.296 7.546,20.52 C7.518,20.548 7.49,20.562 7.462,20.59 L5.95,20.59 L5.95,21.514 L6.846,21.514 C6.734,21.794 6.678,22.116 6.678,22.48 C6.678,23.404 6.944,24.09 7.504,24.538 C8.036,24.972 8.82,25.196 9.87,25.196 C10.822,25.196 11.564,24.958 12.11,24.51 C12.67,24.02 13.02,23.278 13.132,22.284 L11.55,22.284 C11.424,23.32 10.864,23.838 9.87,23.838 C9.338,23.838 8.932,23.712 8.68,23.474 C8.428,23.25 8.302,22.914 8.302,22.466 C8.302,22.13 8.456,21.822 8.792,21.514 L13.86,21.514 L13.86,20.59 L10.346,20.59 C11.214,20.17 11.788,19.862 12.054,19.666 L12.068,19.652 L13.86,19.652 L13.86,18.728 L12.866,18.728 C13.048,18.364 13.146,17.986 13.146,17.566 C13.146,16.628 12.838,15.928 12.25,15.466 C11.69,15.018 10.92,14.808 9.94,14.808 C8.988,14.808 8.246,15.032 7.714,15.494 C7.126,15.97 6.79,16.712 6.678,17.72 L8.26,17.72 C8.372,16.684 8.932,16.166 9.94,16.166 C10.472,16.166 10.864,16.264 11.13,16.474 C11.382,16.67 11.508,17.034 11.508,17.538 C11.508,17.958 11.312,18.308 10.934,18.616 C10.878,18.644 10.836,18.686 10.78,18.728 L5.95,18.728 Z" id="₴" fill="#9098FF"></path>
            </g>
        </g>
    </g>
</svg>