<svg width="185" height="43" viewBox="0 0 185 43" fill="none" xmlns="http://www.w3.org/2000/svg">
<path d="M41.9977 28.1016C40.1977 28.1016 38.4977 27.3016 37.2977 26.1016C36.0977 24.8016 35.2977 23.2016 35.2977 21.2016C35.2977 19.2016 36.0977 17.5016 37.2977 16.3016C38.4977 15.0016 40.1977 14.3016 41.9977 14.3016C44.7977 14.3016 47.0977 15.7016 48.0977 18.6016H50.7977C49.6977 14.3016 46.2977 11.6016 41.8977 11.6016C39.2977 11.6016 36.9977 12.7016 35.2977 14.4016C33.6977 16.1016 32.5977 18.5016 32.5977 21.2016C32.5977 23.8016 33.6977 26.2016 35.2977 28.0016C36.9977 29.7016 39.2977 30.8016 41.8977 30.8016C46.2977 30.8016 49.7977 27.9016 50.8977 23.5016H48.1977C47.2977 26.5016 44.8977 28.1016 41.9977 28.1016Z" fill="white"/>
<path d="M56.0977 14.4016H59.5977V28.0016H56.0977V30.7016H65.8977V28.0016H62.2977V14.4016H65.8977V11.6016H56.0977V14.4016Z" fill="white"/>
<path d="M24.4984 20.2031C26.3984 18.8031 26.5984 16.7031 25.8984 14.8031C25.1984 13.0031 23.6984 11.7031 21.2984 11.7031H13.3984V30.8031H21.9984C25.5984 30.8031 27.4984 27.9031 27.4984 25.0031C27.4984 23.2031 26.6984 21.1031 24.4984 20.2031ZM16.0984 14.3031H21.2984C24.2984 14.3031 24.1984 19.3031 21.1984 19.3031H16.0984V14.3031ZM21.9984 28.0031H16.0984V22.0031H21.9984C23.7984 22.0031 24.7984 23.5031 24.7984 25.0031C24.6984 26.5031 23.7984 28.0031 21.9984 28.0031Z" fill="white"/>
<path d="M72.8969 27.4023C71.9969 27.4023 71.2969 28.1023 71.2969 29.1023C71.2969 29.9023 71.9969 30.8023 72.8969 30.8023C73.8969 30.8023 74.5969 30.0023 74.5969 29.1023C74.5969 28.1023 73.8969 27.4023 72.8969 27.4023Z" fill="white"/>
<path d="M137.299 11.4023C134.599 11.4023 132.199 12.5023 130.499 14.3023C128.799 16.1023 127.699 18.5023 127.699 21.2023C127.699 23.9023 128.799 26.3023 130.499 28.1023C132.199 29.9023 134.699 31.0023 137.299 31.0023C139.999 31.0023 142.399 29.9023 144.199 28.1023C145.899 26.3023 146.999 23.9023 146.999 21.2023C146.999 18.5023 145.899 16.1023 144.199 14.3023C142.399 12.5023 139.899 11.4023 137.299 11.4023ZM142.199 26.1023C140.899 27.4023 139.199 28.2023 137.299 28.2023C135.399 28.2023 133.699 27.4023 132.399 26.1023C131.099 24.8023 130.399 23.1023 130.399 21.2023C130.399 19.3023 131.199 17.5023 132.399 16.3023C133.599 15.0023 135.399 14.2023 137.299 14.2023C139.199 14.2023 140.899 15.0023 142.199 16.3023C143.399 17.6023 144.199 19.3023 144.199 21.2023C144.199 23.1023 143.399 24.9023 142.199 26.1023Z" fill="white"/>
<path d="M151.699 14.4016H155.199V28.0016H151.699V30.7016H161.499V28.0016H157.899V14.4016H161.499V11.6016H151.699V14.4016Z" fill="white"/>
<path d="M119.498 20.2031C121.398 18.8031 121.598 16.7031 120.898 14.8031C120.198 13.0031 118.698 11.7031 116.298 11.7031H108.398V30.8031H116.998C120.598 30.8031 122.498 27.9031 122.498 25.0031C122.498 23.2031 121.698 21.1031 119.498 20.2031ZM111.098 14.3031H116.298C119.298 14.3031 119.198 19.3031 116.198 19.3031H111.098V14.3031ZM116.998 28.0031H111.098V22.0031H116.998C118.798 22.0031 119.798 23.5031 119.798 25.0031C119.798 26.5031 118.798 28.0031 116.998 28.0031Z" fill="white"/>
<path d="M93.6969 28.1016C91.8969 28.1016 90.1969 27.3016 88.9969 26.1016C87.7969 24.8016 86.9969 23.2016 86.9969 21.2016C86.9969 19.2016 87.7969 17.5016 88.9969 16.3016C90.1969 15.0016 91.7969 14.3016 93.6969 14.3016C96.4969 14.3016 98.7969 15.7016 99.7969 18.6016H102.497C101.397 14.3016 97.9969 11.6016 93.5969 11.6016C90.9969 11.6016 88.6969 12.7016 86.9969 14.4016C85.3969 16.1016 84.2969 18.5016 84.2969 21.2016C84.2969 23.8016 85.3969 26.2016 86.9969 28.0016C88.6969 29.7016 90.9969 30.8016 93.5969 30.8016C97.9969 30.8016 101.497 27.9016 102.597 23.5016H99.9969C99.0969 26.5016 96.5969 28.1016 93.6969 28.1016Z" fill="white"/>
<path d="M160.398 7.10156H157.398V9.50156H160.398V7.10156Z" fill="white"/>
<path d="M155.797 7.10156H152.797V9.50156H155.797V7.10156Z" fill="white"/>
</svg>
