<svg width="128" height="30" viewBox="0 0 128 30" fill="none" xmlns="http://www.w3.org/2000/svg">
<g id="logo_vsisvoi">
<path id="Vector" d="M125.88 0.681641H0.591919V29.3862H125.88L116.974 14.7271L125.88 0.681641ZM122.526 27.4498H2.46312V2.618H122.478L114.783 14.7271L122.526 27.4498Z" fill="#2B3338"/>
<path id="Vector_2" d="M29.1566 19.8817C28.5599 19.8778 27.9702 19.7518 27.4238 19.5115C26.8774 19.2711 26.3857 18.9215 25.979 18.484C25.1269 17.5866 24.6518 16.3953 24.6518 15.1567C24.6518 13.9181 25.1269 12.7268 25.979 11.8294C26.3857 11.3919 26.8774 11.0423 27.4238 10.8019C27.9702 10.5616 28.5599 10.4356 29.1566 10.4317C30.0789 10.3954 30.9876 10.6631 31.7435 11.1939C32.4993 11.7247 33.0606 12.4892 33.3413 13.3703H35.1784C34.8798 12 34.1167 10.7756 33.0188 9.90549C31.9209 9.03536 30.5562 8.57319 29.1566 8.5976C28.3198 8.60276 27.4927 8.7769 26.7246 9.1096C25.9565 9.4423 25.2632 9.92673 24.6861 10.534C23.4978 11.7893 22.8353 13.4537 22.8353 15.184C22.8353 16.9142 23.4978 18.5786 24.6861 19.834C25.2616 20.4428 25.9547 20.9278 26.7233 21.2596C27.4918 21.5913 28.3198 21.7628 29.1566 21.7635C30.5912 21.7677 31.9835 21.2764 33.099 20.3723C34.2144 19.4682 34.9848 18.2066 35.2805 16.7999H33.4433C33.1559 17.708 32.5832 18.4987 31.8107 19.0541C31.0382 19.6095 30.1072 19.8998 29.1566 19.8817Z" fill="#2B3338"/>
<path id="Vector_3" d="M38.744 10.5069H41.146V19.7728H38.744V21.6478H45.4123V19.7728H43.0172V10.5069H45.4123V8.64551H38.744V10.5069Z" fill="#2B3338"/>
<path id="Vector_4" d="M17.2762 14.4885C17.8397 14.0785 18.2422 13.4837 18.4137 12.8074C18.5852 12.1311 18.515 11.416 18.2152 10.7862C17.9863 10.1423 17.5591 9.58792 16.9953 9.20312C16.4315 8.81831 15.7602 8.62297 15.0784 8.64527H9.69617V21.6475H15.5411C16.0492 21.6539 16.5531 21.5556 17.0217 21.3587C17.4903 21.1618 17.9135 20.8705 18.2651 20.5029C18.6166 20.1353 18.889 19.6992 19.0654 19.2217C19.2418 18.7442 19.3183 18.2355 19.2903 17.7271C19.3152 17.0475 19.1368 16.3761 18.7778 15.7989C18.4189 15.2218 17.896 14.7654 17.2762 14.4885ZM11.5674 10.4316H15.0988C17.1401 10.4316 17.0925 13.8407 15.058 13.8407H11.5674V10.4316ZM15.5615 19.8271H11.5674V15.6816H15.5615C15.8216 15.6847 16.0783 15.741 16.3159 15.8469C16.5535 15.9528 16.767 16.1062 16.9435 16.2977C17.1199 16.4892 17.2555 16.7147 17.3419 16.9604C17.4284 17.2062 17.4639 17.4671 17.4463 17.7271C17.4688 17.9925 17.4364 18.2597 17.3511 18.512C17.2658 18.7643 17.1295 18.9963 16.9507 19.1934C16.7719 19.3905 16.5544 19.5485 16.3119 19.6575C16.0693 19.7666 15.8069 19.8243 15.5411 19.8271H15.5615Z" fill="#2B3338"/>
<path id="Vector_5" d="M50.2093 19.4183C50.0596 19.4162 49.9111 19.4449 49.7729 19.5027C49.6347 19.5604 49.5098 19.6459 49.4059 19.7538C49.3019 19.8618 49.2212 19.99 49.1686 20.1305C49.1161 20.2709 49.0928 20.4207 49.1002 20.5705C49.1002 20.8725 49.22 21.1621 49.4331 21.3757C49.6462 21.5892 49.9352 21.7092 50.2366 21.7092C50.5379 21.7092 50.827 21.5892 51.0401 21.3757C51.2532 21.1621 51.3729 20.8725 51.3729 20.5705C51.3798 20.4162 51.3543 20.2622 51.2981 20.1183C51.2419 19.9745 51.1562 19.844 51.0465 19.7354C50.9369 19.6268 50.8057 19.5425 50.6615 19.4879C50.5173 19.4332 50.3633 19.4095 50.2093 19.4183Z" fill="#2B3338"/>
<path id="Vector_6" d="M93.9817 8.46143C93.1143 8.46412 92.2561 8.63973 91.457 8.97802C90.658 9.31631 89.9341 9.81053 89.3276 10.4319C88.0975 11.6876 87.4083 13.3769 87.4083 15.1364C87.4083 16.896 88.0975 18.5853 89.3276 19.841C89.9339 20.4669 90.6595 20.9646 91.4613 21.3044C92.2631 21.6442 93.1248 21.8194 93.9953 21.8194C94.8659 21.8194 95.7276 21.6442 96.5294 21.3044C97.3312 20.9646 98.0568 20.4669 98.6631 19.841C99.8932 18.5853 100.582 16.896 100.582 15.1364C100.582 13.3769 99.8932 11.6876 98.6631 10.4319C98.0511 9.81031 97.3223 9.31621 96.5189 8.97803C95.7154 8.63985 94.8532 8.46428 93.9817 8.46143ZM97.3023 18.5046C96.4162 19.3997 95.2127 19.907 93.9545 19.916C93.3373 19.9133 92.7268 19.787 92.1589 19.5447C91.5911 19.3023 91.0772 18.9487 90.6476 18.5046C89.7584 17.6101 89.2592 16.399 89.2592 15.1364C89.2592 13.8739 89.7584 12.6628 90.6476 11.7682C91.0772 11.3242 91.5911 10.9705 92.1589 10.7282C92.7268 10.4858 93.3373 10.3596 93.9545 10.3569C95.2127 10.3658 96.4162 10.8732 97.3023 11.7682C98.1784 12.6696 98.6687 13.8782 98.6687 15.1364C98.6687 16.3947 98.1784 17.6032 97.3023 18.5046Z" fill="#2B3338"/>
<path id="Vector_7" d="M103.794 10.5069H106.196V19.7728H103.794V21.6478H110.462V19.7728H108.06V10.5069H110.462V8.64551H103.794V10.5069Z" fill="#2B3338"/>
<path id="Vector_8" d="M81.9312 14.4888C82.4969 14.0807 82.9016 13.4864 83.0744 12.8097C83.2473 12.133 83.1774 11.4169 82.877 10.7866C82.6459 10.1427 82.2172 9.58875 81.6524 9.20413C81.0877 8.81952 80.4159 8.62401 79.7333 8.64567H74.3579V21.6479H80.2029C80.7109 21.6543 81.2149 21.556 81.6835 21.3591C82.1521 21.1622 82.5753 20.8709 82.9268 20.5033C83.2784 20.1357 83.5508 19.6996 83.7271 19.2221C83.9035 18.7446 83.9801 18.2359 83.952 17.7275C83.9764 17.0472 83.7969 16.3751 83.4368 15.7979C83.0766 15.2207 82.5522 14.7648 81.9312 14.4888ZM76.2087 10.432H79.7333C81.7747 10.432 81.7338 13.8411 79.6993 13.8411H76.2087V10.432ZM80.2029 19.8275H76.2087V15.682H80.2029C80.4629 15.6851 80.7196 15.7414 80.9572 15.8473C81.1948 15.9532 81.4084 16.1066 81.5848 16.2981C81.7612 16.4895 81.8968 16.7151 81.9833 16.9608C82.0697 17.2066 82.1053 17.4675 82.0877 17.7275C82.11 17.9912 82.0782 18.2567 81.9942 18.5077C81.9101 18.7586 81.7756 18.9896 81.599 19.1864C81.4224 19.3832 81.2073 19.5416 80.9672 19.6519C80.7271 19.7621 80.4669 19.8219 80.2029 19.8275Z" fill="#2B3338"/>
<path id="Vector_9" d="M64.3691 19.8816C63.7724 19.8781 63.1826 19.7523 62.6361 19.5119C62.0896 19.2716 61.598 18.9217 61.1915 18.4839C60.3348 17.5889 59.8565 16.3967 59.8565 15.1566C59.8565 13.9165 60.3348 12.7243 61.1915 11.8293C61.598 11.3915 62.0896 11.0416 62.6361 10.8013C63.1826 10.5609 63.7724 10.4351 64.3691 10.4316C65.2894 10.3972 66.1955 10.6659 66.9489 11.1966C67.7022 11.7274 68.2612 12.4909 68.5402 13.3702H70.391C70.0912 12.0005 69.3277 10.7769 68.2301 9.90697C67.1325 9.03704 65.7684 8.57439 64.3691 8.59751C63.531 8.59717 62.7014 8.76605 61.9298 9.09405C61.1582 9.42205 60.4605 9.90246 59.8783 10.5066C58.6945 11.7643 58.0352 13.4278 58.0352 15.1566C58.0352 16.8854 58.6945 18.5489 59.8783 19.8066C60.6612 20.6285 61.6535 21.2202 62.7478 21.5179C63.8421 21.8155 64.9968 21.8077 66.087 21.4953C67.1772 21.1829 68.1614 20.5777 68.9332 19.7453C69.705 18.9129 70.235 17.8849 70.4658 16.7725H68.6559C68.3723 17.6852 67.8015 18.4813 67.0287 19.0417C66.256 19.6022 65.3229 19.8968 64.3691 19.8816Z" fill="#2B3338"/>
<path id="Vector_10" d="M109.7 5.55664H107.693V7.17255H109.7V5.55664Z" fill="#2B3338"/>
<path id="Vector_11" d="M106.556 5.55664H104.549V7.17255H106.556V5.55664Z" fill="#2B3338"/>
</g>
</svg>
