<svg width="41" height="30" viewBox="0 0 41 30" fill="none" xmlns="http://www.w3.org/2000/svg">
<g id="logos:mastercard" clip-path="url(#clip0_3702_828)">
<path id="Vector" d="M7.45647 29.8508V27.8653C7.45647 27.1039 6.96424 26.6077 6.12053 26.6077C5.69876 26.6077 5.24176 26.74 4.92534 27.1703C4.67939 26.8062 4.32791 26.6077 3.80061 26.6077C3.44897 26.6077 3.09765 26.7069 2.81631 27.0709V26.6738H2.07812V29.8508H2.81631V28.0968C2.81631 27.5344 3.13272 27.2695 3.62495 27.2695C4.11686 27.2695 4.36314 27.5674 4.36314 28.0968V29.8508H5.10132V28.0968C5.10132 27.5344 5.45264 27.2695 5.90965 27.2695C6.40188 27.2695 6.64783 27.5674 6.64783 28.0968V29.8508H7.45647ZM18.3885 26.6738H17.1935V25.7141H16.4553V26.6738H15.7874V27.3025H16.4551V28.7588C16.4551 29.4869 16.7715 29.917 17.6153 29.917C17.9317 29.917 18.283 29.8178 18.5293 29.6855L18.3182 29.0897C18.1073 29.222 17.8614 29.2552 17.6855 29.2552C17.3341 29.2552 17.1935 29.0567 17.1935 28.7256V27.3025H18.3885V26.6738ZM24.6456 26.6075C24.2239 26.6075 23.9427 26.8062 23.7669 27.0709V26.6738H23.0287V29.8508H23.7669V28.0638C23.7669 27.5343 24.0128 27.2365 24.4698 27.2365C24.6104 27.2365 24.7862 27.2696 24.9268 27.3026L25.1377 26.6408C24.9971 26.6077 24.7862 26.6077 24.6456 26.6077V26.6075ZM15.1898 26.9386C14.8382 26.7069 14.3461 26.6077 13.8188 26.6077C12.9753 26.6077 12.4129 27.0048 12.4129 27.6335C12.4129 28.1631 12.8347 28.4609 13.5728 28.5602L13.9243 28.5934C14.311 28.6594 14.5219 28.7588 14.5219 28.9243C14.5219 29.1559 14.2407 29.3214 13.7485 29.3214C13.2564 29.3214 12.8697 29.1559 12.6236 28.9905L12.2721 29.5199C12.6588 29.7847 13.1861 29.917 13.7133 29.917C14.6976 29.917 15.2601 29.4869 15.2601 28.8911C15.2601 28.3285 14.8031 28.0306 14.1 27.9314L13.7485 27.8983C13.4321 27.8651 13.1861 27.7991 13.1861 27.6005C13.1861 27.3688 13.4321 27.2365 13.8188 27.2365C14.2407 27.2365 14.6625 27.4018 14.8734 27.5012L15.1898 26.9386ZM34.8046 26.6077C34.3826 26.6077 34.1015 26.8062 33.9256 27.0709V26.6738H33.1875V29.8508H33.9256V28.0638C33.9256 27.5343 34.1718 27.2365 34.6286 27.2365C34.7693 27.2365 34.9452 27.2696 35.0858 27.3026L35.2966 26.6408C35.1561 26.6077 34.9452 26.6077 34.8046 26.6077ZM25.3838 28.2623C25.3838 29.222 26.0868 29.917 27.1766 29.917C27.6687 29.917 28.0202 29.8178 28.3716 29.5531L28.0202 28.9905C27.739 29.189 27.4578 29.2882 27.1414 29.2882C26.5438 29.2882 26.122 28.8911 26.122 28.2623C26.122 27.6667 26.5438 27.2695 27.1414 27.2365C27.4578 27.2365 27.739 27.3357 28.0202 27.5344L28.3716 26.9717C28.0202 26.7069 27.6687 26.6077 27.1766 26.6077C26.0868 26.6077 25.3838 27.3026 25.3838 28.2623ZM32.2033 28.2623V26.6738H31.4651V27.0709C31.219 26.7732 30.8675 26.6077 30.4105 26.6077C29.4615 26.6077 28.7233 27.3026 28.7233 28.2623C28.7233 29.222 29.4615 29.917 30.4105 29.917C30.9026 29.917 31.2542 29.7516 31.4651 29.4537V29.8508H32.2033V28.2623ZM29.4965 28.2623C29.4965 27.6997 29.8832 27.2365 30.5159 27.2365C31.1135 27.2365 31.5354 27.6667 31.5354 28.2623C31.5354 28.825 31.1135 29.2882 30.5159 29.2882C29.8832 29.2551 29.4965 28.825 29.4965 28.2623ZM20.6735 26.6077C19.6892 26.6077 18.9861 27.2695 18.9861 28.2623C18.9861 29.2552 19.6891 29.917 20.7086 29.917C21.2007 29.917 21.6929 29.7847 22.0796 29.4869L21.728 28.9905C21.4468 29.189 21.0953 29.3214 20.7438 29.3214C20.2868 29.3214 19.8298 29.1228 19.7243 28.5601H22.2202V28.2955C22.2554 27.2695 21.6228 26.6077 20.6735 26.6077ZM20.6735 27.2033C21.1304 27.2033 21.4469 27.4682 21.5171 27.9646H19.7595C19.8298 27.5343 20.1462 27.2033 20.6735 27.2033ZM38.9876 28.2623V25.4163H38.2494V27.0709C38.0033 26.7732 37.6518 26.6077 37.1948 26.6077C36.2457 26.6077 35.5075 27.3026 35.5075 28.2623C35.5075 29.222 36.2457 29.917 37.1948 29.917C37.687 29.917 38.0385 29.7516 38.2494 29.4537V29.8508H38.9876V28.2623ZM36.2809 28.2623C36.2809 27.6997 36.6675 27.2365 37.3003 27.2365C37.8979 27.2365 38.3197 27.6667 38.3197 28.2623C38.3197 28.825 37.8979 29.2882 37.3003 29.2882C36.6675 29.2551 36.2809 28.825 36.2809 28.2623ZM11.6042 28.2623V26.6738H10.8661V27.0709C10.6199 26.7732 10.2685 26.6077 9.81146 26.6077C8.86239 26.6077 8.1242 27.3026 8.1242 28.2623C8.1242 29.222 8.86239 29.917 9.81146 29.917C10.3037 29.917 10.6552 29.7516 10.8661 29.4537V29.8508H11.6042V28.2623ZM8.86239 28.2623C8.86239 27.6997 9.2491 27.2365 9.88176 27.2365C10.4794 27.2365 10.9013 27.6667 10.9013 28.2623C10.9013 28.825 10.4794 29.2882 9.88176 29.2882C9.2491 29.2551 8.86239 28.825 8.86239 28.2623Z" fill="black"/>
<path id="Vector_2" d="M14.9434 2.5481H26.0161V21.2794H14.9434V2.5481Z" fill="#FF5F00"/>
<path id="Vector_3" d="M15.6475 11.9139C15.6475 8.10814 17.5457 4.73246 20.4632 2.54819C18.3191 0.959699 15.6125 0 12.6597 0C5.66425 0 0.00488281 5.32809 0.00488281 11.9139C0.00488281 18.4996 5.66425 23.8278 12.6596 23.8278C15.6123 23.8278 18.3189 22.8681 20.4632 21.2795C17.5457 19.1284 15.6475 15.7197 15.6475 11.9139Z" fill="#EB001B"/>
<path id="Vector_4" d="M40.9554 11.9139C40.9554 18.4996 35.296 23.8278 28.3007 23.8278C25.348 23.8278 22.6413 22.8681 20.4971 21.2795C23.4498 19.0954 25.3129 15.7197 25.3129 11.9139C25.3129 8.10814 23.4146 4.73246 20.4971 2.54819C22.6412 0.959699 25.348 0 28.3007 0C35.296 0 40.9554 5.36126 40.9554 11.9139Z" fill="#F79E1B"/>
</g>
<defs>
<clipPath id="clip0_3702_828">
<rect width="41" height="30" fill="white"/>
</clipPath>
</defs>
</svg>
