<svg width="0" height="0" class="hidden">
  <symbol fill="none" xmlns="http://www.w3.org/2000/svg" viewBox="0 0 19 31" id="ic_arr_hor">
    <path d="M13 7L6 14L13 21" stroke="currentColor" stroke-linecap="round" stroke-linejoin="round"></path>
  </symbol>
  <symbol xmlns="http://www.w3.org/2000/svg" viewBox="0 0 25 24" id="ic_cart">
    <path d="M7.81543 5.5C7.81543 4.30653 8.28954 3.16193 9.13345 2.31802C9.97736 1.47411 11.122 1 12.3154 1C13.5089 1 14.6535 1.47411 15.4974 2.31802C16.3413 3.16193 16.8154 4.30653 16.8154 5.5V7H21.3154V23H3.31543V7H7.81543V5.5ZM7.81543 9H5.31543V21H19.3154V9H16.8154V12H14.8154V9H9.81543V12H7.81543V9ZM14.8154 7V5.5C14.8154 4.83696 14.552 4.20107 14.0832 3.73223C13.6144 3.26339 12.9785 3 12.3154 3C11.6524 3 11.0165 3.26339 10.5477 3.73223C10.0788 4.20107 9.81543 4.83696 9.81543 5.5V7H14.8154Z" fill="currentColor"></path>
  </symbol>
  <symbol xmlns="http://www.w3.org/2000/svg" viewBox="0 0 21 20" id="ic_favorite">
    <path fill-rule="evenodd" clip-rule="evenodd" d="M11.2567 2.80879L10.3154 3.75004L9.37418 2.80879C8.37475 1.836 7.03237 1.29603 5.63771 1.30579C4.24304 1.31556 2.90836 1.87428 1.92265 2.86097C0.936946 3.84766 0.379561 5.18291 0.371189 6.57758C0.362818 7.97225 0.904135 9.31409 1.87792 10.3125L8.99043 17.425L10.3154 18.75L11.6404 17.425L18.7529 10.3125C19.7267 9.31409 20.268 7.97225 20.2597 6.57758C20.2513 5.18291 19.6939 3.84766 18.7082 2.86097C17.7225 1.87428 16.3878 1.31556 14.9931 1.30579C13.5985 1.29603 12.2561 1.836 11.2567 2.80879ZM10.3154 16.0988L17.4279 8.98629C18.0608 8.34148 18.4137 7.47292 18.4097 6.5694C18.4057 5.66589 18.0453 4.80046 17.4067 4.16124C16.7681 3.52202 15.9031 3.16069 14.9996 3.15578C14.0961 3.15088 13.2271 3.5028 12.5817 4.13504L11.6417 5.07629L10.3154 6.40004L8.99043 5.07504L8.04917 4.13504V4.13379C7.40569 3.49114 6.53327 3.13043 5.62384 3.13102C4.71441 3.1316 3.84245 3.49344 3.1998 4.13692C2.55715 4.7804 2.19644 5.65282 2.19702 6.56225C2.19761 7.47169 2.55944 8.34364 3.20292 8.98629L10.3154 16.1V16.0988Z" fill="currentColor"></path>
  </symbol>
  <symbol xmlns="http://www.w3.org/2000/svg" viewBox="0 0 25 24" id="ic_search">
    <path d="M15.4412 17.567C13.8068 18.8373 11.7499 19.4366 9.68931 19.2429C7.62875 19.0491 5.71946 18.0768 4.35023 16.5241C2.98099 14.9713 2.25476 12.9548 2.3194 10.8851C2.38404 8.81538 3.2347 6.84815 4.69816 5.38394C6.16162 3.91974 8.12785 3.06865 10.1965 3.00397C12.2651 2.9393 14.2806 3.6659 15.8326 5.03583C17.3846 6.40577 18.3564 8.31602 18.55 10.3776C18.7437 12.4392 18.1447 14.4972 16.8751 16.1325L22.3154 21.5553L20.8714 23L15.4514 17.567H15.4412ZM10.4585 17.2415C11.2597 17.2415 12.0531 17.0836 12.7933 16.7768C13.5336 16.47 14.2062 16.0204 14.7728 15.4535C15.3393 14.8867 15.7888 14.2137 16.0954 13.4731C16.402 12.7324 16.5598 11.9386 16.5598 11.137C16.5598 10.3353 16.402 9.54155 16.0954 8.80092C15.7888 8.06029 15.3393 7.38734 14.7728 6.82049C14.2062 6.25364 13.5336 5.80399 12.7933 5.49721C12.0531 5.19043 11.2597 5.03254 10.4585 5.03254C8.84028 5.03254 7.28837 5.67568 6.14415 6.82049C4.99992 7.9653 4.3571 9.51799 4.3571 11.137C4.3571 12.756 4.99992 14.3087 6.14415 15.4535C7.28837 16.5983 8.84028 17.2415 10.4585 17.2415Z" fill="currentColor"></path>
  </symbol>
  <symbol xmlns="http://www.w3.org/2000/svg" viewBox="0 0 25 24" id="ic_user">
    <path d="M12.3154 12C11.2154 12 10.2738 11.6083 9.49043 10.825C8.7071 10.0417 8.31543 9.1 8.31543 8C8.31543 6.9 8.7071 5.95833 9.49043 5.175C10.2738 4.39167 11.2154 4 12.3154 4C13.4154 4 14.3571 4.39167 15.1404 5.175C15.9238 5.95833 16.3154 6.9 16.3154 8C16.3154 9.1 15.9238 10.0417 15.1404 10.825C14.3571 11.6083 13.4154 12 12.3154 12ZM4.31543 20V17.2C4.31543 16.6333 4.46126 16.1125 4.75293 15.6375C5.0446 15.1625 5.4321 14.8 5.91543 14.55C6.94876 14.0333 7.99876 13.6458 9.06543 13.3875C10.1321 13.1292 11.2154 13 12.3154 13C13.4154 13 14.4988 13.1292 15.5654 13.3875C16.6321 13.6458 17.6821 14.0333 18.7154 14.55C19.1988 14.8 19.5863 15.1625 19.8779 15.6375C20.1696 16.1125 20.3154 16.6333 20.3154 17.2V20H4.31543ZM6.31543 18H18.3154V17.2C18.3154 17.0167 18.2696 16.85 18.1779 16.7C18.0863 16.55 17.9654 16.4333 17.8154 16.35C16.9154 15.9 16.0071 15.5625 15.0904 15.3375C14.1738 15.1125 13.2488 15 12.3154 15C11.3821 15 10.4571 15.1125 9.54043 15.3375C8.62376 15.5625 7.71543 15.9 6.81543 16.35C6.66543 16.4333 6.5446 16.55 6.45293 16.7C6.36126 16.85 6.31543 17.0167 6.31543 17.2V18ZM12.3154 10C12.8654 10 13.3363 9.80417 13.7279 9.4125C14.1196 9.02083 14.3154 8.55 14.3154 8C14.3154 7.45 14.1196 6.97917 13.7279 6.5875C13.3363 6.19583 12.8654 6 12.3154 6C11.7654 6 11.2946 6.19583 10.9029 6.5875C10.5113 6.97917 10.3154 7.45 10.3154 8C10.3154 8.55 10.5113 9.02083 10.9029 9.4125C11.2946 9.80417 11.7654 10 12.3154 10Z" fill="currentColor"></path>
  </symbol>
</svg>