<svg width="0" height="0" class="hidden">
  <symbol fill="none" xmlns="http://www.w3.org/2000/svg" viewBox="0 0 19 31" id="ic_arr_hor">
    <path d="M13 7L6 14L13 21" stroke="currentColor" stroke-linecap="round" stroke-linejoin="round"></path>
  </symbol>
  <symbol xmlns="http://www.w3.org/2000/svg" viewBox="0 0 25 24" id="ic_cart">
    <path d="M6.62313 21.5C6.118 21.5 5.69043 21.325 5.34043 20.975C4.99043 20.625 4.81543 20.1974 4.81543 19.6923V8.3077C4.81543 7.80257 4.99043 7.375 5.34043 7.025C5.69043 6.675 6.118 6.5 6.62313 6.5H8.56543V6.25C8.56543 5.2141 8.93146 4.33013 9.66351 3.59808C10.3955 2.86603 11.2795 2.5 12.3154 2.5C13.3513 2.5 14.2353 2.86603 14.9673 3.59808C15.6994 4.33013 16.0654 5.2141 16.0654 6.25V6.5H18.0077C18.5128 6.5 18.9404 6.675 19.2904 7.025C19.6404 7.375 19.8154 7.80257 19.8154 8.3077V19.6923C19.8154 20.1974 19.6404 20.625 19.2904 20.975C18.9404 21.325 18.5128 21.5 18.0077 21.5H6.62313ZM6.62313 20H18.0077C18.0846 20 18.1551 19.9679 18.2193 19.9038C18.2834 19.8397 18.3154 19.7692 18.3154 19.6923V8.3077C18.3154 8.23077 18.2834 8.16024 18.2193 8.09613C18.1551 8.03203 18.0846 7.99998 18.0077 7.99998H16.0654V10.25C16.0654 10.4628 15.9936 10.641 15.85 10.7846C15.7064 10.9282 15.5282 11 15.3154 11C15.1026 11 14.9244 10.9282 14.7808 10.7846C14.6372 10.641 14.5654 10.4628 14.5654 10.25V7.99998H10.0654V10.25C10.0654 10.4628 9.99359 10.641 9.85 10.7846C9.70642 10.9282 9.52822 11 9.3154 11C9.10259 11 8.92439 10.9282 8.7808 10.7846C8.63722 10.641 8.56543 10.4628 8.56543 10.25V7.99998H6.62313C6.5462 7.99998 6.47567 8.03203 6.41155 8.09613C6.34745 8.16024 6.3154 8.23077 6.3154 8.3077V19.6923C6.3154 19.7692 6.34745 19.8397 6.41155 19.9038C6.47567 19.9679 6.5462 20 6.62313 20ZM10.0654 6.5H14.5654V6.25C14.5654 5.62307 14.3472 5.09133 13.9106 4.6548C13.4741 4.21825 12.9423 3.99998 12.3154 3.99998C11.6885 3.99998 11.1567 4.21825 10.7202 4.6548C10.2837 5.09133 10.0654 5.62307 10.0654 6.25V6.5Z" fill="currentColor"></path>
  </symbol>
  <symbol xmlns="http://www.w3.org/2000/svg" viewBox="0 0 15 15" id="ic_check">
    <circle cx="7.5" cy="7.5" r="7" stroke="currentColor" fill="none"></circle>
    <path d="M7.0046 8.42735L4.76324 6.11007L4 6.89361L7.0046 10L12 4.78341L11.2421 3.99986L7.0046 8.42735Z" fill="currentColor"></path>
  </symbol>
  <symbol fill="none" xmlns="http://www.w3.org/2000/svg" viewBox="0 0 24 24" id="ic_close">
    <path d="M6.40002 18.3078L5.69232 17.6001L11.2923 12.0001L5.69232 6.40008L6.40002 5.69238L12 11.2924L17.6 5.69238L18.3077 6.40008L12.7077 12.0001L18.3077 17.6001L17.6 18.3078L12 12.7078L6.40002 18.3078Z" fill="currentColor"></path>
  </symbol>
  <symbol xmlns="http://www.w3.org/2000/svg" viewBox="0 0 24 24" id="ic_email">
    <path d="M4.3077 19.5C3.80257 19.5 3.375 19.325 3.025 18.975C2.675 18.625 2.5 18.1974 2.5 17.6923V6.3077C2.5 5.80257 2.675 5.375 3.025 5.025C3.375 4.675 3.80257 4.5 4.3077 4.5H19.6923C20.1974 4.5 20.625 4.675 20.975 5.025C21.325 5.375 21.5 5.80257 21.5 6.3077V17.6923C21.5 18.1974 21.325 18.625 20.975 18.975C20.625 19.325 20.1974 19.5 19.6923 19.5H4.3077ZM12 12.5576L3.99998 7.44225V17.6923C3.99998 17.782 4.02883 17.8557 4.08653 17.9134C4.14423 17.9711 4.21795 18 4.3077 18H19.6923C19.782 18 19.8557 17.9711 19.9134 17.9134C19.9711 17.8557 20 17.782 20 17.6923V7.44225L12 12.5576ZM12 11L19.8461 5.99998H4.15383L12 11ZM3.99998 7.44225V5.99998V17.6923C3.99998 17.782 4.02883 17.8557 4.08653 17.9134C4.14423 17.9711 4.21795 18 4.3077 18H3.99998V7.44225Z" fill="currentColor"></path>
  </symbol>
  <symbol xmlns="http://www.w3.org/2000/svg" viewBox="0 0 25 24" id="ic_favorite">
    <path d="M12.3154 20.3268L11.2116 19.3345C9.5539 17.8306 8.18306 16.5383 7.09908 15.4576C6.01511 14.3768 5.15615 13.4149 4.52218 12.572C3.8882 11.729 3.44525 10.9601 3.19333 10.2653C2.9414 9.57039 2.81543 8.86526 2.81543 8.14988C2.81543 6.73066 3.29395 5.54253 4.251 4.58548C5.20805 3.62843 6.39619 3.1499 7.8154 3.1499C8.68849 3.1499 9.51349 3.35408 10.2904 3.76243C11.0673 4.17076 11.7423 4.75634 12.3154 5.51915C12.8885 4.75634 13.5635 4.17076 14.3404 3.76243C15.1173 3.35408 15.9423 3.1499 16.8154 3.1499C18.2346 3.1499 19.4228 3.62843 20.3798 4.58548C21.3369 5.54253 21.8154 6.73066 21.8154 8.14988C21.8154 8.86526 21.6894 9.57039 21.4375 10.2653C21.1856 10.9601 20.7426 11.729 20.1086 12.572C19.4747 13.4149 18.6173 14.3768 17.5365 15.4576C16.4558 16.5383 15.0833 17.8306 13.4192 19.3345L12.3154 20.3268ZM12.3154 18.2999C13.9154 16.8601 15.2321 15.6262 16.2654 14.598C17.2987 13.5698 18.1154 12.6765 18.7154 11.9182C19.3154 11.1598 19.7321 10.4864 19.9654 9.89795C20.1987 9.30949 20.3154 8.72679 20.3154 8.14988C20.3154 7.14988 19.9821 6.31654 19.3154 5.64988C18.6487 4.98321 17.8154 4.64988 16.8154 4.64988C16.0257 4.64988 15.2958 4.87392 14.626 5.322C13.9561 5.77007 13.4257 6.39347 13.0346 7.1922H11.5962C11.1987 6.38707 10.6667 5.76206 10 5.31718C9.33336 4.87231 8.60515 4.64988 7.8154 4.64988C6.82182 4.64988 5.99009 4.98321 5.3202 5.64988C4.65034 6.31654 4.3154 7.14988 4.3154 8.14988C4.3154 8.72679 4.43207 9.30949 4.6654 9.89795C4.89874 10.4864 5.3154 11.1598 5.91541 11.9182C6.51541 12.6765 7.33207 13.5682 8.36541 14.5932C9.39874 15.6182 10.7154 16.8537 12.3154 18.2999Z" fill="currentColor"></path>
  </symbol>
  <symbol xmlns="http://www.w3.org/2000/svg" viewBox="0 0 24 24" id="ic_filter">
    <path d="M9 5.00001C8.73478 5.00001 8.48043 5.10537 8.29289 5.2929C8.10536 5.48044 8 5.73479 8 6.00001C8 6.26523 8.10536 6.51958 8.29289 6.70712C8.48043 6.89465 8.73478 7.00001 9 7.00001C9.26522 7.00001 9.51957 6.89465 9.70711 6.70712C9.89464 6.51958 10 6.26523 10 6.00001C10 5.73479 9.89464 5.48044 9.70711 5.2929C9.51957 5.10537 9.26522 5.00001 9 5.00001ZM6.17 5.00001C6.3766 4.41448 6.75974 3.90744 7.2666 3.5488C7.77346 3.19015 8.37909 2.99756 9 2.99756C9.62091 2.99756 10.2265 3.19015 10.7334 3.5488C11.2403 3.90744 11.6234 4.41448 11.83 5.00001H19C19.2652 5.00001 19.5196 5.10537 19.7071 5.2929C19.8946 5.48044 20 5.73479 20 6.00001C20 6.26523 19.8946 6.51958 19.7071 6.70712C19.5196 6.89465 19.2652 7.00001 19 7.00001H11.83C11.6234 7.58554 11.2403 8.09258 10.7334 8.45122C10.2265 8.80986 9.62091 9.00246 9 9.00246C8.37909 9.00246 7.77346 8.80986 7.2666 8.45122C6.75974 8.09258 6.3766 7.58554 6.17 7.00001H5C4.73478 7.00001 4.48043 6.89465 4.29289 6.70712C4.10536 6.51958 4 6.26523 4 6.00001C4 5.73479 4.10536 5.48044 4.29289 5.2929C4.48043 5.10537 4.73478 5.00001 5 5.00001H6.17ZM15 11C14.7348 11 14.4804 11.1054 14.2929 11.2929C14.1054 11.4804 14 11.7348 14 12C14 12.2652 14.1054 12.5196 14.2929 12.7071C14.4804 12.8947 14.7348 13 15 13C15.2652 13 15.5196 12.8947 15.7071 12.7071C15.8946 12.5196 16 12.2652 16 12C16 11.7348 15.8946 11.4804 15.7071 11.2929C15.5196 11.1054 15.2652 11 15 11ZM12.17 11C12.3766 10.4145 12.7597 9.90744 13.2666 9.5488C13.7735 9.19015 14.3791 8.99756 15 8.99756C15.6209 8.99756 16.2265 9.19015 16.7334 9.5488C17.2403 9.90744 17.6234 10.4145 17.83 11H19C19.2652 11 19.5196 11.1054 19.7071 11.2929C19.8946 11.4804 20 11.7348 20 12C20 12.2652 19.8946 12.5196 19.7071 12.7071C19.5196 12.8947 19.2652 13 19 13H17.83C17.6234 13.5855 17.2403 14.0926 16.7334 14.4512C16.2265 14.8099 15.6209 15.0025 15 15.0025C14.3791 15.0025 13.7735 14.8099 13.2666 14.4512C12.7597 14.0926 12.3766 13.5855 12.17 13H5C4.73478 13 4.48043 12.8947 4.29289 12.7071C4.10536 12.5196 4 12.2652 4 12C4 11.7348 4.10536 11.4804 4.29289 11.2929C4.48043 11.1054 4.73478 11 5 11H12.17ZM9 17C8.73478 17 8.48043 17.1054 8.29289 17.2929C8.10536 17.4804 8 17.7348 8 18C8 18.2652 8.10536 18.5196 8.29289 18.7071C8.48043 18.8947 8.73478 19 9 19C9.26522 19 9.51957 18.8947 9.70711 18.7071C9.89464 18.5196 10 18.2652 10 18C10 17.7348 9.89464 17.4804 9.70711 17.2929C9.51957 17.1054 9.26522 17 9 17ZM6.17 17C6.3766 16.4145 6.75974 15.9074 7.2666 15.5488C7.77346 15.1902 8.37909 14.9976 9 14.9976C9.62091 14.9976 10.2265 15.1902 10.7334 15.5488C11.2403 15.9074 11.6234 16.4145 11.83 17H19C19.2652 17 19.5196 17.1054 19.7071 17.2929C19.8946 17.4804 20 17.7348 20 18C20 18.2652 19.8946 18.5196 19.7071 18.7071C19.5196 18.8947 19.2652 19 19 19H11.83C11.6234 19.5855 11.2403 20.0926 10.7334 20.4512C10.2265 20.8099 9.62091 21.0025 9 21.0025C8.37909 21.0025 7.77346 20.8099 7.2666 20.4512C6.75974 20.0926 6.3766 19.5855 6.17 19H5C4.73478 19 4.48043 18.8947 4.29289 18.7071C4.10536 18.5196 4 18.2652 4 18C4 17.7348 4.10536 17.4804 4.29289 17.2929C4.48043 17.1054 4.73478 17 5 17H6.17Z" fill="currentColor"></path>
  </symbol>
  <symbol xmlns="http://www.w3.org/2000/svg" viewBox="0 0 16 16" id="ic_minus">
    <path d="M2 7.3335V8.66683H14V7.3335H2Z" fill="currentColor"></path>
  </symbol>
  <symbol xmlns="http://www.w3.org/2000/svg" viewBox="0 0 16 16" id="ic_plus">
    <path d="M14 8.66667H8.66667V14H7.33333V8.66667H2V7.33333H7.33333V2H8.66667V7.33333H14V8.66667Z" fill="currentColor"></path>
  </symbol>
  <symbol xmlns="http://www.w3.org/2000/svg" viewBox="0 0 25 24" id="ic_search">
    <path d="M19.8577 20.577L13.5769 14.2962C13.0769 14.7091 12.5019 15.0321 11.8519 15.2655C11.2019 15.4988 10.5295 15.6155 9.83465 15.6155C8.12548 15.6155 6.67897 15.0237 5.4951 13.8401C4.31123 12.6566 3.7193 11.2104 3.7193 9.50169C3.7193 7.79296 4.31108 6.34628 5.49465 5.16167C6.67822 3.97707 8.12437 3.38477 9.8331 3.38477C11.5418 3.38477 12.9885 3.9767 14.1731 5.16057C15.3577 6.34443 15.95 7.79095 15.95 9.50012C15.95 10.2142 15.8301 10.8963 15.5904 11.5463C15.3506 12.1963 15.0308 12.7617 14.6308 13.2424L20.9115 19.5232L19.8577 20.577ZM9.83465 14.1155C11.1231 14.1155 12.2145 13.6684 13.1087 12.7742C14.0029 11.8799 14.45 10.7886 14.45 9.50012C14.45 8.21165 14.0029 7.1203 13.1087 6.22607C12.2145 5.33183 11.1231 4.88472 9.83465 4.88472C8.54618 4.88472 7.45483 5.33183 6.5606 6.22607C5.66638 7.1203 5.21927 8.21165 5.21927 9.50012C5.21927 10.7886 5.66638 11.8799 6.5606 12.7742C7.45483 13.6684 8.54618 14.1155 9.83465 14.1155Z" fill="currentColor"></path>
  </symbol>
  <symbol xmlns="http://www.w3.org/2000/svg" viewBox="0 0 25 24" id="ic_user">
    <path d="M12.3154 11.6923C11.3529 11.6923 10.529 11.3496 9.84355 10.6642C9.15814 9.97879 8.81543 9.15484 8.81543 8.19236C8.81543 7.22986 9.15814 6.40591 9.84355 5.72051C10.529 5.03509 11.3529 4.69238 12.3154 4.69238C13.2779 4.69238 14.1018 5.03509 14.7873 5.72051C15.4727 6.40591 15.8154 7.22986 15.8154 8.19236C15.8154 9.15484 15.4727 9.97879 14.7873 10.6642C14.1018 11.3496 13.2779 11.6923 12.3154 11.6923ZM4.81543 19.3077V17.0846C4.81543 16.5949 4.94845 16.1414 5.21448 15.7241C5.4805 15.3068 5.83594 14.986 6.2808 14.7616C7.26927 14.277 8.26639 13.9135 9.27215 13.6712C10.2779 13.4289 11.2923 13.3078 12.3154 13.3078C13.3385 13.3078 14.3529 13.4289 15.3587 13.6712C16.3644 13.9135 17.3615 14.277 18.35 14.7616C18.7949 14.986 19.1503 15.3068 19.4163 15.7241C19.6824 16.1414 19.8154 16.5949 19.8154 17.0846V19.3077H4.81543ZM6.3154 17.8077H18.3154V17.0846C18.3154 16.8821 18.2567 16.6946 18.1394 16.5221C18.0221 16.3497 17.8628 16.209 17.6616 16.1C16.8 15.6757 15.9215 15.3542 15.0261 15.1356C14.1307 14.917 13.2271 14.8077 12.3154 14.8077C11.4037 14.8077 10.5001 14.917 9.6047 15.1356C8.70927 15.3542 7.83079 15.6757 6.96925 16.1C6.76797 16.209 6.60868 16.3497 6.49138 16.5221C6.37406 16.6946 6.3154 16.8821 6.3154 17.0846V17.8077ZM12.3154 10.1924C12.8654 10.1924 13.3362 9.99653 13.7279 9.60486C14.1196 9.21319 14.3154 8.74236 14.3154 8.19236C14.3154 7.64236 14.1196 7.17153 13.7279 6.77986C13.3362 6.38819 12.8654 6.19236 12.3154 6.19236C11.7654 6.19236 11.2946 6.38819 10.9029 6.77986C10.5112 7.17153 10.3154 7.64236 10.3154 8.19236C10.3154 8.74236 10.5112 9.21319 10.9029 9.60486C11.2946 9.99653 11.7654 10.1924 12.3154 10.1924Z" fill="currentColor"></path>
  </symbol>
</svg>