<svg width="0" height="0" class="hidden">
  <symbol fill="none" xmlns="http://www.w3.org/2000/svg" viewBox="0 0 19 31" id="ic_arr_hor">
    <path d="M13 7L6 14L13 21" stroke="currentColor" stroke-linecap="round" stroke-linejoin="round"></path>
  </symbol>
  <symbol xmlns="http://www.w3.org/2000/svg" viewBox="0 0 25 24" id="ic_cart">
    <path d="M6.62313 21.5C6.118 21.5 5.69043 21.325 5.34043 20.975C4.99043 20.625 4.81543 20.1974 4.81543 19.6923V8.3077C4.81543 7.80257 4.99043 7.375 5.34043 7.025C5.69043 6.675 6.118 6.5 6.62313 6.5H8.56543V6.25C8.56543 5.2141 8.93146 4.33013 9.66351 3.59808C10.3955 2.86603 11.2795 2.5 12.3154 2.5C13.3513 2.5 14.2353 2.86603 14.9673 3.59808C15.6994 4.33013 16.0654 5.2141 16.0654 6.25V6.5H18.0077C18.5128 6.5 18.9404 6.675 19.2904 7.025C19.6404 7.375 19.8154 7.80257 19.8154 8.3077V19.6923C19.8154 20.1974 19.6404 20.625 19.2904 20.975C18.9404 21.325 18.5128 21.5 18.0077 21.5H6.62313ZM6.62313 20H18.0077C18.0846 20 18.1551 19.9679 18.2193 19.9038C18.2834 19.8397 18.3154 19.7692 18.3154 19.6923V8.3077C18.3154 8.23077 18.2834 8.16024 18.2193 8.09613C18.1551 8.03203 18.0846 7.99998 18.0077 7.99998H16.0654V10.25C16.0654 10.4628 15.9936 10.641 15.85 10.7846C15.7064 10.9282 15.5282 11 15.3154 11C15.1026 11 14.9244 10.9282 14.7808 10.7846C14.6372 10.641 14.5654 10.4628 14.5654 10.25V7.99998H10.0654V10.25C10.0654 10.4628 9.99359 10.641 9.85 10.7846C9.70642 10.9282 9.52822 11 9.3154 11C9.10259 11 8.92439 10.9282 8.7808 10.7846C8.63722 10.641 8.56543 10.4628 8.56543 10.25V7.99998H6.62313C6.5462 7.99998 6.47567 8.03203 6.41155 8.09613C6.34745 8.16024 6.3154 8.23077 6.3154 8.3077V19.6923C6.3154 19.7692 6.34745 19.8397 6.41155 19.9038C6.47567 19.9679 6.5462 20 6.62313 20ZM10.0654 6.5H14.5654V6.25C14.5654 5.62307 14.3472 5.09133 13.9106 4.6548C13.4741 4.21825 12.9423 3.99998 12.3154 3.99998C11.6885 3.99998 11.1567 4.21825 10.7202 4.6548C10.2837 5.09133 10.0654 5.62307 10.0654 6.25V6.5Z" fill="currentColor"></path>
  </symbol>
  <symbol xmlns="http://www.w3.org/2000/svg" viewBox="0 0 15 15" id="ic_check">
    <circle cx="7.5" cy="7.5" r="7" stroke="currentColor" fill="none"></circle>
    <path d="M7.0046 8.42735L4.76324 6.11007L4 6.89361L7.0046 10L12 4.78341L11.2421 3.99986L7.0046 8.42735Z" fill="currentColor"></path>
  </symbol>
  <symbol fill="none" xmlns="http://www.w3.org/2000/svg" viewBox="0 0 24 24" id="ic_close">
    <path d="M6.40002 18.3078L5.69232 17.6001L11.2923 12.0001L5.69232 6.40008L6.40002 5.69238L12 11.2924L17.6 5.69238L18.3077 6.40008L12.7077 12.0001L18.3077 17.6001L17.6 18.3078L12 12.7078L6.40002 18.3078Z" fill="currentColor"></path>
  </symbol>
  <symbol xmlns="http://www.w3.org/2000/svg" viewBox="0 0 24 24" id="ic_delivery">
    <path d="M5.68688 19.1154C4.95913 19.1154 4.34206 18.8611 3.83566 18.3526C3.32924 17.844 3.07603 17.2265 3.07603 16.5H1.69141V6.61537C1.69141 6.15512 1.84557 5.77083 2.15391 5.4625C2.46224 5.15417 2.84654 5 3.30681 5H16.5376V8.61537H18.8453L22.3068 13.2692V16.5H20.6914C20.6914 17.2265 20.4367 17.844 19.9273 18.3526C19.4178 18.8611 18.7993 19.1154 18.0715 19.1154C17.3438 19.1154 16.7267 18.8611 16.2203 18.3526C15.7138 17.844 15.4606 17.2265 15.4606 16.5H8.30681C8.30681 17.2308 8.05209 17.8494 7.54266 18.3558C7.03324 18.8622 6.41465 19.1154 5.68688 19.1154ZM5.69141 18.1154C6.14141 18.1154 6.52314 17.9586 6.83661 17.6452C7.15007 17.3317 7.30681 16.95 7.30681 16.5C7.30681 16.05 7.15007 15.6683 6.83661 15.3548C6.52314 15.0414 6.14141 14.8846 5.69141 14.8846C5.24141 14.8846 4.85968 15.0414 4.54623 15.3548C4.23276 15.6683 4.07603 16.05 4.07603 16.5C4.07603 16.95 4.23276 17.3317 4.54623 17.6452C4.85968 17.9586 5.24141 18.1154 5.69141 18.1154ZM2.69141 15.5H3.33758C3.47988 15.059 3.76962 14.6795 4.20681 14.3616C4.64399 14.0436 5.13886 13.8846 5.69141 13.8846C6.21834 13.8846 6.70681 14.0404 7.15681 14.3519C7.60681 14.6635 7.90296 15.0462 8.04526 15.5H15.5376V6H3.30681C3.15296 6 3.01193 6.0641 2.88373 6.1923C2.75551 6.32052 2.69141 6.46154 2.69141 6.61537V15.5ZM18.076 18.1154C18.526 18.1154 18.9078 17.9586 19.2212 17.6452C19.5347 17.3317 19.6914 16.95 19.6914 16.5C19.6914 16.05 19.5347 15.6683 19.2212 15.3548C18.9078 15.0414 18.526 14.8846 18.076 14.8846C17.626 14.8846 17.2443 15.0414 16.9308 15.3548C16.6174 15.6683 16.4607 16.05 16.4607 16.5C16.4607 16.95 16.6174 17.3317 16.9308 17.6452C17.2443 17.9586 17.626 18.1154 18.076 18.1154ZM16.5376 13.5H21.2491L18.3068 9.61538H16.5376V13.5Z" fill="currentColor"></path>
  </symbol>
  <symbol xmlns="http://www.w3.org/2000/svg" viewBox="0 0 24 24" id="ic_email">
    <path d="M4.3077 19.5C3.80257 19.5 3.375 19.325 3.025 18.975C2.675 18.625 2.5 18.1974 2.5 17.6923V6.3077C2.5 5.80257 2.675 5.375 3.025 5.025C3.375 4.675 3.80257 4.5 4.3077 4.5H19.6923C20.1974 4.5 20.625 4.675 20.975 5.025C21.325 5.375 21.5 5.80257 21.5 6.3077V17.6923C21.5 18.1974 21.325 18.625 20.975 18.975C20.625 19.325 20.1974 19.5 19.6923 19.5H4.3077ZM12 12.5576L3.99998 7.44225V17.6923C3.99998 17.782 4.02883 17.8557 4.08653 17.9134C4.14423 17.9711 4.21795 18 4.3077 18H19.6923C19.782 18 19.8557 17.9711 19.9134 17.9134C19.9711 17.8557 20 17.782 20 17.6923V7.44225L12 12.5576ZM12 11L19.8461 5.99998H4.15383L12 11ZM3.99998 7.44225V5.99998V17.6923C3.99998 17.782 4.02883 17.8557 4.08653 17.9134C4.14423 17.9711 4.21795 18 4.3077 18H3.99998V7.44225Z" fill="currentColor"></path>
  </symbol>
  <symbol xmlns="http://www.w3.org/2000/svg" viewBox="0 0 25 24" id="ic_favorite">
    <path d="M12.3154 20.3268L11.2116 19.3345C9.5539 17.8306 8.18306 16.5383 7.09908 15.4576C6.01511 14.3768 5.15615 13.4149 4.52218 12.572C3.8882 11.729 3.44525 10.9601 3.19333 10.2653C2.9414 9.57039 2.81543 8.86526 2.81543 8.14988C2.81543 6.73066 3.29395 5.54253 4.251 4.58548C5.20805 3.62843 6.39619 3.1499 7.8154 3.1499C8.68849 3.1499 9.51349 3.35408 10.2904 3.76243C11.0673 4.17076 11.7423 4.75634 12.3154 5.51915C12.8885 4.75634 13.5635 4.17076 14.3404 3.76243C15.1173 3.35408 15.9423 3.1499 16.8154 3.1499C18.2346 3.1499 19.4228 3.62843 20.3798 4.58548C21.3369 5.54253 21.8154 6.73066 21.8154 8.14988C21.8154 8.86526 21.6894 9.57039 21.4375 10.2653C21.1856 10.9601 20.7426 11.729 20.1086 12.572C19.4747 13.4149 18.6173 14.3768 17.5365 15.4576C16.4558 16.5383 15.0833 17.8306 13.4192 19.3345L12.3154 20.3268ZM12.3154 18.2999C13.9154 16.8601 15.2321 15.6262 16.2654 14.598C17.2987 13.5698 18.1154 12.6765 18.7154 11.9182C19.3154 11.1598 19.7321 10.4864 19.9654 9.89795C20.1987 9.30949 20.3154 8.72679 20.3154 8.14988C20.3154 7.14988 19.9821 6.31654 19.3154 5.64988C18.6487 4.98321 17.8154 4.64988 16.8154 4.64988C16.0257 4.64988 15.2958 4.87392 14.626 5.322C13.9561 5.77007 13.4257 6.39347 13.0346 7.1922H11.5962C11.1987 6.38707 10.6667 5.76206 10 5.31718C9.33336 4.87231 8.60515 4.64988 7.8154 4.64988C6.82182 4.64988 5.99009 4.98321 5.3202 5.64988C4.65034 6.31654 4.3154 7.14988 4.3154 8.14988C4.3154 8.72679 4.43207 9.30949 4.6654 9.89795C4.89874 10.4864 5.3154 11.1598 5.91541 11.9182C6.51541 12.6765 7.33207 13.5682 8.36541 14.5932C9.39874 15.6182 10.7154 16.8537 12.3154 18.2999Z" fill="currentColor"></path>
  </symbol>
  <symbol xmlns="http://www.w3.org/2000/svg" viewBox="0 0 24 24" id="ic_filter">
    <path d="M9 5.00001C8.73478 5.00001 8.48043 5.10537 8.29289 5.2929C8.10536 5.48044 8 5.73479 8 6.00001C8 6.26523 8.10536 6.51958 8.29289 6.70712C8.48043 6.89465 8.73478 7.00001 9 7.00001C9.26522 7.00001 9.51957 6.89465 9.70711 6.70712C9.89464 6.51958 10 6.26523 10 6.00001C10 5.73479 9.89464 5.48044 9.70711 5.2929C9.51957 5.10537 9.26522 5.00001 9 5.00001ZM6.17 5.00001C6.3766 4.41448 6.75974 3.90744 7.2666 3.5488C7.77346 3.19015 8.37909 2.99756 9 2.99756C9.62091 2.99756 10.2265 3.19015 10.7334 3.5488C11.2403 3.90744 11.6234 4.41448 11.83 5.00001H19C19.2652 5.00001 19.5196 5.10537 19.7071 5.2929C19.8946 5.48044 20 5.73479 20 6.00001C20 6.26523 19.8946 6.51958 19.7071 6.70712C19.5196 6.89465 19.2652 7.00001 19 7.00001H11.83C11.6234 7.58554 11.2403 8.09258 10.7334 8.45122C10.2265 8.80986 9.62091 9.00246 9 9.00246C8.37909 9.00246 7.77346 8.80986 7.2666 8.45122C6.75974 8.09258 6.3766 7.58554 6.17 7.00001H5C4.73478 7.00001 4.48043 6.89465 4.29289 6.70712C4.10536 6.51958 4 6.26523 4 6.00001C4 5.73479 4.10536 5.48044 4.29289 5.2929C4.48043 5.10537 4.73478 5.00001 5 5.00001H6.17ZM15 11C14.7348 11 14.4804 11.1054 14.2929 11.2929C14.1054 11.4804 14 11.7348 14 12C14 12.2652 14.1054 12.5196 14.2929 12.7071C14.4804 12.8947 14.7348 13 15 13C15.2652 13 15.5196 12.8947 15.7071 12.7071C15.8946 12.5196 16 12.2652 16 12C16 11.7348 15.8946 11.4804 15.7071 11.2929C15.5196 11.1054 15.2652 11 15 11ZM12.17 11C12.3766 10.4145 12.7597 9.90744 13.2666 9.5488C13.7735 9.19015 14.3791 8.99756 15 8.99756C15.6209 8.99756 16.2265 9.19015 16.7334 9.5488C17.2403 9.90744 17.6234 10.4145 17.83 11H19C19.2652 11 19.5196 11.1054 19.7071 11.2929C19.8946 11.4804 20 11.7348 20 12C20 12.2652 19.8946 12.5196 19.7071 12.7071C19.5196 12.8947 19.2652 13 19 13H17.83C17.6234 13.5855 17.2403 14.0926 16.7334 14.4512C16.2265 14.8099 15.6209 15.0025 15 15.0025C14.3791 15.0025 13.7735 14.8099 13.2666 14.4512C12.7597 14.0926 12.3766 13.5855 12.17 13H5C4.73478 13 4.48043 12.8947 4.29289 12.7071C4.10536 12.5196 4 12.2652 4 12C4 11.7348 4.10536 11.4804 4.29289 11.2929C4.48043 11.1054 4.73478 11 5 11H12.17ZM9 17C8.73478 17 8.48043 17.1054 8.29289 17.2929C8.10536 17.4804 8 17.7348 8 18C8 18.2652 8.10536 18.5196 8.29289 18.7071C8.48043 18.8947 8.73478 19 9 19C9.26522 19 9.51957 18.8947 9.70711 18.7071C9.89464 18.5196 10 18.2652 10 18C10 17.7348 9.89464 17.4804 9.70711 17.2929C9.51957 17.1054 9.26522 17 9 17ZM6.17 17C6.3766 16.4145 6.75974 15.9074 7.2666 15.5488C7.77346 15.1902 8.37909 14.9976 9 14.9976C9.62091 14.9976 10.2265 15.1902 10.7334 15.5488C11.2403 15.9074 11.6234 16.4145 11.83 17H19C19.2652 17 19.5196 17.1054 19.7071 17.2929C19.8946 17.4804 20 17.7348 20 18C20 18.2652 19.8946 18.5196 19.7071 18.7071C19.5196 18.8947 19.2652 19 19 19H11.83C11.6234 19.5855 11.2403 20.0926 10.7334 20.4512C10.2265 20.8099 9.62091 21.0025 9 21.0025C8.37909 21.0025 7.77346 20.8099 7.2666 20.4512C6.75974 20.0926 6.3766 19.5855 6.17 19H5C4.73478 19 4.48043 18.8947 4.29289 18.7071C4.10536 18.5196 4 18.2652 4 18C4 17.7348 4.10536 17.4804 4.29289 17.2929C4.48043 17.1054 4.73478 17 5 17H6.17Z" fill="currentColor"></path>
  </symbol>
  <symbol xmlns="http://www.w3.org/2000/svg" viewBox="0 0 24 24" id="ic_like">
    <path d="M17.6464 21.8196H6.56156V8.28265L13.3496 1.49463L14.9715 2.96775C15.1229 3.10524 15.2478 3.29753 15.3464 3.54463C15.4449 3.79175 15.4942 4.03523 15.4942 4.27508V4.46963L14.4366 8.28265H20.7029C21.3964 8.28265 22.0114 8.55095 22.548 9.08755C23.0846 9.62415 23.3529 10.2392 23.3529 10.9327V12.0707C23.3529 12.2103 23.3362 12.3599 23.3029 12.5194C23.2696 12.679 23.2268 12.8218 23.1747 12.9479L20.0899 20.2381C19.8928 20.6845 19.5603 21.0597 19.0926 21.3637C18.6248 21.6677 18.1427 21.8196 17.6464 21.8196ZM8.99963 19.1696H17.6464L20.6746 12.0707V10.9327H11.3072L12.4876 6.1251L8.99963 9.6131V19.1696ZM6.56156 8.28265V10.9327H3.99963V19.1696H6.56156V21.8196H1.34961V8.28265H6.56156Z" fill="currentColor"></path>
  </symbol>
  <symbol xmlns="http://www.w3.org/2000/svg" viewBox="0 0 16 16" id="ic_minus">
    <path d="M2 7.3335V8.66683H14V7.3335H2Z" fill="currentColor"></path>
  </symbol>
  <symbol xmlns="http://www.w3.org/2000/svg" viewBox="0 0 12 12" id="ic_notice">
    <path d="M5.394 8.60598H6.60598V5.49999H5.394V8.60598ZM5.99999 4.6413C6.1817 4.6413 6.33401 4.57984 6.45693 4.45693C6.57984 4.33401 6.6413 4.1817 6.6413 3.99999C6.6413 3.81828 6.57984 3.66597 6.45693 3.54305C6.33401 3.42014 6.1817 3.35868 5.99999 3.35868C5.81828 3.35868 5.66597 3.42014 5.54305 3.54305C5.42014 3.66597 5.35868 3.81828 5.35868 3.99999C5.35868 4.1817 5.42014 4.33401 5.54305 4.45693C5.66597 4.57984 5.81828 4.6413 5.99999 4.6413ZM5.99999 11.2402C5.27064 11.2402 4.5877 11.1029 3.95117 10.8282C3.31462 10.5535 2.76092 10.1808 2.29007 9.70992C1.8192 9.23906 1.44643 8.68536 1.17177 8.04882C0.897099 7.41228 0.759766 6.72934 0.759766 5.99999C0.759766 5.27064 0.897099 4.5877 1.17177 3.95117C1.44643 3.31462 1.8192 2.76092 2.29007 2.29007C2.76092 1.8192 3.31462 1.44643 3.95117 1.17177C4.5877 0.897099 5.27064 0.759766 5.99999 0.759766C6.72934 0.759766 7.41228 0.897099 8.04882 1.17177C8.68536 1.44643 9.23906 1.8192 9.70992 2.29007C10.1808 2.76092 10.5535 3.31462 10.8282 3.95117C11.1029 4.5877 11.2402 5.27064 11.2402 5.99999C11.2402 6.72934 11.1029 7.41228 10.8282 8.04882C10.5535 8.68536 10.1808 9.23906 9.70992 9.70992C9.23906 10.1808 8.68536 10.5535 8.04882 10.8282C7.41228 11.1029 6.72934 11.2402 5.99999 11.2402ZM5.99999 9.9152C7.09782 9.9152 8.02481 9.53712 8.78097 8.78097C9.53712 8.02481 9.9152 7.09782 9.9152 5.99999C9.9152 4.90217 9.53712 3.97517 8.78097 3.21902C8.02481 2.46286 7.09782 2.08478 5.99999 2.08478C4.90217 2.08478 3.97517 2.46286 3.21902 3.21902C2.46286 3.97517 2.08478 4.90217 2.08478 5.99999C2.08478 7.09782 2.46286 8.02481 3.21902 8.78097C3.97517 9.53712 4.90217 9.9152 5.99999 9.9152Z" fill="currentColor"></path>
  </symbol>
  <symbol xmlns="http://www.w3.org/2000/svg" viewBox="0 0 16 16" id="ic_plus">
    <path d="M14 8.66667H8.66667V14H7.33333V8.66667H2V7.33333H7.33333V2H8.66667V7.33333H14V8.66667Z" fill="currentColor"></path>
  </symbol>
  <symbol xmlns="http://www.w3.org/2000/svg" viewBox="0 0 25 24" id="ic_search">
    <path d="M19.8577 20.577L13.5769 14.2962C13.0769 14.7091 12.5019 15.0321 11.8519 15.2655C11.2019 15.4988 10.5295 15.6155 9.83465 15.6155C8.12548 15.6155 6.67897 15.0237 5.4951 13.8401C4.31123 12.6566 3.7193 11.2104 3.7193 9.50169C3.7193 7.79296 4.31108 6.34628 5.49465 5.16167C6.67822 3.97707 8.12437 3.38477 9.8331 3.38477C11.5418 3.38477 12.9885 3.9767 14.1731 5.16057C15.3577 6.34443 15.95 7.79095 15.95 9.50012C15.95 10.2142 15.8301 10.8963 15.5904 11.5463C15.3506 12.1963 15.0308 12.7617 14.6308 13.2424L20.9115 19.5232L19.8577 20.577ZM9.83465 14.1155C11.1231 14.1155 12.2145 13.6684 13.1087 12.7742C14.0029 11.8799 14.45 10.7886 14.45 9.50012C14.45 8.21165 14.0029 7.1203 13.1087 6.22607C12.2145 5.33183 11.1231 4.88472 9.83465 4.88472C8.54618 4.88472 7.45483 5.33183 6.5606 6.22607C5.66638 7.1203 5.21927 8.21165 5.21927 9.50012C5.21927 10.7886 5.66638 11.8799 6.5606 12.7742C7.45483 13.6684 8.54618 14.1155 9.83465 14.1155Z" fill="currentColor"></path>
  </symbol>
  <symbol xmlns="http://www.w3.org/2000/svg" viewBox="0 0 24 24" id="ic_shops">
    <path d="M5.61538 21C5.16794 21 4.78685 20.8426 4.4721 20.5279C4.15737 20.2131 4 19.8321 4 19.3846V8.61538C4 8.16794 4.15737 7.78685 4.4721 7.4721C4.78685 7.15737 5.16794 7 5.61538 7H8C8 5.8859 8.38814 4.94071 9.16442 4.16443C9.94071 3.38814 10.8859 3 12 3C13.1141 3 14.0593 3.38814 14.8356 4.16443C15.6119 4.94071 16 5.8859 16 7H18.3846C18.8321 7 19.2132 7.15737 19.5279 7.4721C19.8426 7.78685 20 8.16794 20 8.61538V19.3846C20 19.8321 19.8426 20.2131 19.5279 20.5279C19.2132 20.8426 18.8321 21 18.3846 21H5.61538ZM5.61538 20H18.3846C18.5385 20 18.6795 19.9359 18.8077 19.8077C18.9359 19.6795 19 19.5385 19 19.3846V8.61538C19 8.46154 18.9359 8.32052 18.8077 8.1923C18.6795 8.0641 18.5385 8 18.3846 8H5.61538C5.46154 8 5.32052 8.0641 5.1923 8.1923C5.0641 8.32052 5 8.46154 5 8.61538V19.3846C5 19.5385 5.0641 19.6795 5.1923 19.8077C5.32052 19.9359 5.46154 20 5.61538 20ZM12 13C13.1141 13 14.0593 12.6119 14.8356 11.8356C15.6119 11.0593 16 10.1141 16 9H15C15 9.83333 14.7083 10.5417 14.125 11.125C13.5417 11.7083 12.8333 12 12 12C11.1667 12 10.4583 11.7083 9.875 11.125C9.29167 10.5417 9 9.83333 9 9H8C8 10.1141 8.38814 11.0593 9.16442 11.8356C9.94071 12.6119 10.8859 13 12 13ZM9 7H15C15 6.16667 14.7083 5.45833 14.125 4.875C13.5417 4.29167 12.8333 4 12 4C11.1667 4 10.4583 4.29167 9.875 4.875C9.29167 5.45833 9 6.16667 9 7Z" fill="currentColor"></path>
  </symbol>
  <symbol xmlns="http://www.w3.org/2000/svg" viewBox="0 0 12 12" id="ic_sizes">
    <path d="M1.42935 10.2402C1.24529 10.2402 1.08767 10.1758 0.956516 10.047C0.825349 9.91821 0.759766 9.76204 0.759766 9.57851C0.759766 9.47056 0.783499 9.3707 0.830966 9.27894C0.878432 9.18717 0.94492 9.11104 1.03043 9.05053L5.34457 5.89619V5.09184C5.34457 4.90613 5.40973 4.75047 5.54005 4.62484C5.67039 4.49922 5.82787 4.4364 6.0125 4.4364C6.20287 4.4364 6.36278 4.36929 6.49224 4.23507C6.62169 4.10084 6.68642 3.94052 6.68642 3.75409C6.68642 3.56767 6.61939 3.40951 6.48533 3.27962C6.35127 3.14972 6.19067 3.08478 6.00354 3.08478C5.8164 3.08478 5.65698 3.15082 5.52528 3.28292C5.39358 3.41502 5.32773 3.57542 5.32773 3.76412H4.0027C4.0027 3.21013 4.19841 2.73758 4.58983 2.34645C4.98124 1.95533 5.45379 1.75977 6.0075 1.75977C6.5612 1.75977 7.03362 1.95322 7.42474 2.34013C7.81587 2.72704 8.01143 3.19753 8.01143 3.75162C8.01143 4.17155 7.88624 4.5451 7.63588 4.87228C7.38552 5.19945 7.06107 5.4355 6.66252 5.58043V5.89619L10.9766 9.05053C11.0621 9.11104 11.1286 9.18717 11.1761 9.27894C11.2236 9.3707 11.2473 9.47056 11.2473 9.57851C11.2473 9.76204 11.1817 9.91821 11.0506 10.047C10.9194 10.1758 10.7618 10.2402 10.5777 10.2402H1.42935ZM3.4734 8.9152H8.53368L6.00707 7.06088L3.4734 8.9152Z" fill="currentColor"></path>
  </symbol>
  <symbol xmlns="http://www.w3.org/2000/svg" viewBox="0 0 12 12" id="ic_star">
    <path id="star" d="M2.2873 11.8625L3.2748 7.6375L-0.0126953 4.7875L4.3123 4.425L5.9998 0.4375L7.6873 4.425L12.0123 4.7875L8.7248 7.6375L9.71231 11.8625L5.9998 9.6125L2.2873 11.8625Z" fill="currentColor"></path>
  </symbol>
  <symbol xmlns="http://www.w3.org/2000/svg" viewBox="0 0 25 24" id="ic_user">
    <path d="M12.3154 11.6923C11.3529 11.6923 10.529 11.3496 9.84355 10.6642C9.15814 9.97879 8.81543 9.15484 8.81543 8.19236C8.81543 7.22986 9.15814 6.40591 9.84355 5.72051C10.529 5.03509 11.3529 4.69238 12.3154 4.69238C13.2779 4.69238 14.1018 5.03509 14.7873 5.72051C15.4727 6.40591 15.8154 7.22986 15.8154 8.19236C15.8154 9.15484 15.4727 9.97879 14.7873 10.6642C14.1018 11.3496 13.2779 11.6923 12.3154 11.6923ZM4.81543 19.3077V17.0846C4.81543 16.5949 4.94845 16.1414 5.21448 15.7241C5.4805 15.3068 5.83594 14.986 6.2808 14.7616C7.26927 14.277 8.26639 13.9135 9.27215 13.6712C10.2779 13.4289 11.2923 13.3078 12.3154 13.3078C13.3385 13.3078 14.3529 13.4289 15.3587 13.6712C16.3644 13.9135 17.3615 14.277 18.35 14.7616C18.7949 14.986 19.1503 15.3068 19.4163 15.7241C19.6824 16.1414 19.8154 16.5949 19.8154 17.0846V19.3077H4.81543ZM6.3154 17.8077H18.3154V17.0846C18.3154 16.8821 18.2567 16.6946 18.1394 16.5221C18.0221 16.3497 17.8628 16.209 17.6616 16.1C16.8 15.6757 15.9215 15.3542 15.0261 15.1356C14.1307 14.917 13.2271 14.8077 12.3154 14.8077C11.4037 14.8077 10.5001 14.917 9.6047 15.1356C8.70927 15.3542 7.83079 15.6757 6.96925 16.1C6.76797 16.209 6.60868 16.3497 6.49138 16.5221C6.37406 16.6946 6.3154 16.8821 6.3154 17.0846V17.8077ZM12.3154 10.1924C12.8654 10.1924 13.3362 9.99653 13.7279 9.60486C14.1196 9.21319 14.3154 8.74236 14.3154 8.19236C14.3154 7.64236 14.1196 7.17153 13.7279 6.77986C13.3362 6.38819 12.8654 6.19236 12.3154 6.19236C11.7654 6.19236 11.2946 6.38819 10.9029 6.77986C10.5112 7.17153 10.3154 7.64236 10.3154 8.19236C10.3154 8.74236 10.5112 9.21319 10.9029 9.60486C11.2946 9.99653 11.7654 10.1924 12.3154 10.1924Z" fill="currentColor"></path>
  </symbol>
</svg>