<svg width="44" height="44" viewBox="0 0 44 44" fill="none" xmlns="http://www.w3.org/2000/svg">
<g id="ri:visa-fill">
<path id="Vector" d="M3 8.33325H43.3333V11.9999H3V8.33325ZM37.1403 28.3423L36.8213 26.7472H33.2482L32.6798 28.3294L29.8162 28.3368C31.6587 23.9239 33.0245 20.6551 33.9155 18.5284C34.1483 17.9748 34.5627 17.6924 35.1713 17.6961C35.637 17.6998 36.3978 17.6998 37.4538 17.6961L39.6667 28.3386L37.1403 28.3423ZM34.053 24.5619H36.3557L35.494 20.5653L34.053 24.5619ZM15.5987 17.6943L18.477 17.6979L14.0275 28.3423L11.1125 28.3404C10.128 24.5454 9.40383 21.7294 8.94183 19.8979C8.80067 19.3351 8.52017 18.9428 7.9775 18.7576C7.49533 18.5926 6.69233 18.3359 5.56667 17.9894V17.6961H10.1665C10.9622 17.6961 11.426 18.0811 11.5763 18.8694L12.713 24.8993L15.5987 17.6943ZM22.4315 17.6979L20.1582 28.3404L17.4173 28.3368L19.6907 17.6943L22.4315 17.6979ZM27.9902 17.4999C28.8078 17.4999 29.8418 17.7529 30.4358 17.9894L29.9555 20.1968C29.4183 19.9804 28.5347 19.6889 27.7922 19.7018C26.7105 19.7183 26.0432 20.1711 26.0432 20.6056C26.0432 21.3096 27.2018 21.6653 28.3972 22.4371C29.7593 23.3171 29.9372 24.1054 29.9225 24.9634C29.9023 26.7436 28.3972 28.4999 25.22 28.4999C23.7698 28.4779 23.2473 28.3569 22.0667 27.9389L22.5653 25.6363C23.768 26.1386 24.2795 26.2981 25.3062 26.2981C26.2503 26.2981 27.0588 25.9186 27.0662 25.2568C27.0698 24.7856 26.782 24.5528 25.7242 23.9698C24.6663 23.3886 23.1832 22.5838 23.2033 20.9631C23.2272 18.8914 25.198 17.4999 27.9902 17.4999Z" fill="#1A1F71"/>
<path id="Vector_2" d="M43.1673 34H2.83398V37.6667H43.1673V34Z" fill="#F7B600"/>
</g>
</svg>
